<?xml version="1.0" encoding="UTF-8" standalone="no"?>
<!-- Generator: Adobe Illustrator 15.1.0, SVG Export Plug-In  -->

<svg
   xmlns:dc="http://purl.org/dc/elements/1.1/"
   xmlns:cc="http://creativecommons.org/ns#"
   xmlns:rdf="http://www.w3.org/1999/02/22-rdf-syntax-ns#"
   xmlns:svg="http://www.w3.org/2000/svg"
   xmlns="http://www.w3.org/2000/svg"
   xmlns:xlink="http://www.w3.org/1999/xlink"
   xmlns:sodipodi="http://sodipodi.sourceforge.net/DTD/sodipodi-0.dtd"
   xmlns:inkscape="http://www.inkscape.org/namespaces/inkscape"
   version="1.1"
   x="0px"
   y="0px"
   width="540px"
   height="413px"
   viewBox="0.013 0 540 413"
   enable-background="new 0.013 0 540 413"
   xml:space="preserve"
   id="svg2"
   inkscape:version="0.48.4 r9939"
   sodipodi:docname="harakka_0.svg"><metadata
     id="metadata40"><rdf:RDF><cc:Work
         rdf:about=""><dc:format>image/svg+xml</dc:format><dc:type
           rdf:resource="http://purl.org/dc/dcmitype/StillImage" /></cc:Work></rdf:RDF></metadata><sodipodi:namedview
     pagecolor="#ffffff"
     bordercolor="#666666"
     borderopacity="1"
     objecttolerance="10"
     gridtolerance="10"
     guidetolerance="10"
     inkscape:pageopacity="0"
     inkscape:pageshadow="2"
     inkscape:window-width="640"
     inkscape:window-height="480"
     id="namedview38"
     showgrid="false"
     inkscape:zoom="0.5"
     inkscape:cx="270"
     inkscape:cy="206.5"
     inkscape:window-x="274"
     inkscape:window-y="193"
     inkscape:window-maximized="0"
     inkscape:current-layer="svg2" /><defs
     id="defs4" /><path
     fill="#FFFFFF"
     stroke="#000000"
     stroke-width="3"
     stroke-miterlimit="10"
     d="M260.569,283.397  c20.688,19.47,7.242,69.067,9.111,76.074c7.325,4.146,3.741-0.213,13.591,6.272c9.85,6.484,30.232,32.04,36.013,25.955  c5.78-6.084-26.55-22.154-27.89-28.151c-1.339-5.995,46.447,20.563,44.014,6.864c-2.435-13.698-44.707-11.137-45.824-16.219  c-1.118-5.081,47.978,0.615,37.976-10.113c-10.002-10.73-47.37,9.885-50.47,7.902c-3.099-1.981,12.989-44.855-10.739-74.365  L260.569,283.397z"
     id="path10" /><path
     fill="#FFFFFF"
     stroke="#000000"
     stroke-width="3"
     stroke-miterlimit="10"
     d="M362.659,44c-22.146-17-38.146-5-61.646-12  c0.5,25-29.5,30.5-29.5,30.5c-72,68.5-54.5,155.5-61.5,168c-3,11.167-10.667,10.834-10.667,10.834  C121.68,225.667,9.513,281.5,14.513,300.5s161.583-47.749,193.833-56.499S47.513,305,60.013,341.5c10.5,14,97.333-23.499,143-85.166  c3.333-3.667,9.666-4.667,15.333-2.667S250.013,279,263.013,286c90-109,55.5-172,58.5-179s11-6,11-6  C356.513,102,373.804,57.5,362.659,44z"
     id="path12" /><path
     fill="#FFFFFF"
     stroke="#000000"
     stroke-width="3"
     stroke-miterlimit="10"
     d="M481.109,210.767  c-3.16,4.366-9.849,4.919-14.94,1.234l-81.944-59.295c-5.092-3.685-6.658-10.21-3.498-14.577l33.691-46.562  c3.16-4.366,9.849-4.919,14.94-1.234l81.944,59.295c5.092,3.685,6.658,10.21,3.498,14.577L481.109,210.767z"
     id="path14" /><path
     fill="#FFFFFF"
     stroke="#000000"
     stroke-width="3"
     stroke-miterlimit="10"
     d="M393.347,87.667c0,0,3.339,2.529,7.973,6.331  c14.035-0.051,25.401-11.685,25.401-26.033c0-14.381-11.415-26.036-25.492-26.036c-7.589,0-14.399,3.39-19.068,8.763  C376.74,46.494,369.985,44,362.659,44c-11.048,0-20.795,5.665-26.622,14.303l-49.24-18.8l-5.753,15.07l49.49,18.895  c-0.121,1.161-0.187,2.339-0.187,3.532c0,18.227,14.466,33,32.312,33c8.063,0,15.423-3.029,21.082-8.02  C384.061,99.535,385.855,89.137,393.347,87.667z"
     id="path16" /><ellipse
     fill="#FFFFFF"
     stroke="#000000"
     stroke-width="3"
     stroke-miterlimit="10"
     cx="402.75"
     cy="69.332"
     rx="12.403"
     ry="12.668"
     id="ellipse18" /><ellipse
     fill="#FFFFFF"
     stroke="#000000"
     stroke-width="3"
     stroke-miterlimit="10"
     cx="365.014"
     cy="78"
     rx="15.667"
     ry="16"
     id="ellipse20" /><path
     fill="#FFFFFF"
     stroke="#000000"
     stroke-width="3"
     stroke-miterlimit="10"
     d="M383.68,102.5c0,0,1.167-13.166,9.667-14.833  c0,0,37,28,36,38.166L383.68,102.5z"
     id="path22" /><polygon
     fill="#FFFFFF"
     stroke="#000000"
     stroke-width="3"
     stroke-miterlimit="10"
     points="379.68,106.667 392.68,121.333   398.68,113.167 383.347,103.5 "
     id="polygon24" /><path
     fill="#FFFFFF"
     stroke="#000000"
     stroke-width="3"
     stroke-miterlimit="10"
     d="M289.513,133.5c3-17.5,17,134.5-27.5,133  c-21.5-7-30.5-33.5-25.5-61S286.513,151,289.513,133.5z"
     id="path26" /><path
     fill="#FFFFFF"
     stroke="#000000"
     stroke-width="3"
     stroke-miterlimit="10"
     d="M215.129,218.287  c-5.468,16.584-1.284-128.543,44.55-125.415c0,0,25.334,4.628-1.406,57.368C249.499,176.264,220.597,201.702,215.129,218.287z"
     id="path28" /><path
     fill="#FFFFFF"
     stroke="#000000"
     stroke-width="3"
     stroke-miterlimit="10"
     d="M322.513,139.5c-5-20-11-13.5-17.5,8  s-3.5,78.5-13.5,98.5C318.013,196,327.513,159.5,322.513,139.5z"
     id="path30" /><path
     fill="#FFFFFF"
     stroke="#000000"
     stroke-width="3"
     stroke-miterlimit="10"
     d="M267.513,66.5c0,0-22.5-14.5-38-6.5  s-50.5,47-60.5,67.5s-6.5,25.5-6.5,25.5c3,15.5,13,39.5,24.5,44.5s25,2.5,25,2.5S209.513,123,267.513,66.5z"
     id="path32" /><path
     fill="#FFFFFF"
     stroke="#000000"
     stroke-width="3"
     stroke-miterlimit="10"
     d="M288.263,252.75c18-1,39.5,25,47.25,26.75  c7.75-5,2.166-4.167,13-10s47.167-12.5,33.5-17.5c-5.75-2-25,10.25-31.5,8.5s31.5-31.5,25-31.5c-9.25-0.25-29.5,30-35,28.5  s25-46.25,9.5-42s-14.5,51-18,53s-28.25-25-40.5-22.5L288.263,252.75z"
     id="path34" /><path
     fill="#FFFFFF"
     stroke="#000000"
     stroke-width="3"
     stroke-miterlimit="10"
     d="M245.013,77l-6.5,9.5c0,0,77,2.5,18.5,67.5  l-6.5,11.5c0,0,49-32.5,37-62.5S245.013,77,245.013,77z"
     id="path36" /></svg>
