<?xml version="1.0" encoding="UTF-8" standalone="no"?>
<!-- Generator: Adobe Illustrator 15.1.0, SVG Export Plug-In  -->

<svg
   xmlns:dc="http://purl.org/dc/elements/1.1/"
   xmlns:cc="http://creativecommons.org/ns#"
   xmlns:rdf="http://www.w3.org/1999/02/22-rdf-syntax-ns#"
   xmlns:svg="http://www.w3.org/2000/svg"
   xmlns="http://www.w3.org/2000/svg"
   xmlns:xlink="http://www.w3.org/1999/xlink"
   xmlns:sodipodi="http://sodipodi.sourceforge.net/DTD/sodipodi-0.dtd"
   xmlns:inkscape="http://www.inkscape.org/namespaces/inkscape"
   version="1.1"
   x="0px"
   y="0px"
   width="540px"
   height="413px"
   viewBox="0 0 540 413"
   enable-background="new 0 0 540 413"
   xml:space="preserve"
   id="svg3050"
   inkscape:version="0.48.4 r9939"
   sodipodi:docname="laululintu-2.svg"><metadata
     id="metadata3076"><rdf:RDF><cc:Work
         rdf:about=""><dc:format>image/svg+xml</dc:format><dc:type
           rdf:resource="http://purl.org/dc/dcmitype/StillImage" /></cc:Work></rdf:RDF></metadata><sodipodi:namedview
     pagecolor="#ffffff"
     bordercolor="#666666"
     borderopacity="1"
     objecttolerance="10"
     gridtolerance="10"
     guidetolerance="10"
     inkscape:pageopacity="0"
     inkscape:pageshadow="2"
     inkscape:window-width="816"
     inkscape:window-height="607"
     id="namedview3074"
     showgrid="false"
     inkscape:zoom="0.5"
     inkscape:cx="270"
     inkscape:cy="206.5"
     inkscape:window-x="264"
     inkscape:window-y="35"
     inkscape:window-maximized="0"
     inkscape:current-layer="svg3050" /><defs
     id="defs3052" /><path
     fill="#FFFFFF"
     stroke="#000000"
     stroke-width="3"
     stroke-miterlimit="10"
     d="M313.163,360.51c0,0,29.933,0.907,30.386,2.268  S304.546,366.859,305,377.29c0,0,41.27-12.245,42.631-9.523c1.36,2.721-14.513,1.134-17.461,17.233c0,0,31.973-20.862,47.847-20.635  c2.494-1.588-11.792-3.401-11.792-3.401s29.933-31.747,19.502-81.634l-10.432,12.245c12.245,39.003-14.513,66.667-14.513,66.667  S320.419,351.439,313.163,360.51z"
     id="path3058" /><path
     fill="#FFFFFF"
     stroke="#000000"
     stroke-width="3"
     stroke-miterlimit="10"
     d="M340.5,370c0,0,33,1,33.5,2.5s-43,4.5-42.5,16  c0,0,45.5-13.5,47-10.5s-16,1.25-19.25,19c0,0,35.25-23,52.75-22.75c2.75-1.75-13-3.75-13-3.75s33-35,21.5-90L409,294  c13.5,43-16,73.5-16,73.5S348.5,360,340.5,370z"
     id="path3060" /><path
     fill="#FFFFFF"
     stroke="#000000"
     stroke-width="3"
     stroke-miterlimit="10"
     d="M434.667,174.667  c-18.167,11.333-0.165,2.501-70.666,8.667s-81.501,51.166-104.667,30c-4.66-16.227,18.396-56.304,4.391-103.956  c3.127,2.173,6.715,4.174,10.799,5.746c0,0-7.068-7.139-16.074-19.908c-2.941-6.594-7.537-15.31-14.547-24.008  c2.334,1.164,14.653,6.689,28.598,1.292c0,0-18.5-2.5-41.5-14.5c-0.046-0.024-0.087-0.045-0.133-0.068  c-13.177-10.957-31.502-19.822-56.866-21.265C84.5,41,74.001,132,74.001,132s10.335,49.336,37.917,71.418  s90.416,35.584,106.749,30.583c3.833,1.499,15.833-4.001,16,6c0.833,22.999,73.667,125.833,154,72.666  c74.833-60.667,53-107.334,52-127.5C437.166,172.833,434.667,174.667,434.667,174.667z"
     id="path3062" /><path
     fill="#FFFFFF"
     stroke="#000000"
     stroke-width="3"
     stroke-miterlimit="10"
     d="M39,199.5c9,7,64,5.5,66-1.5s-7-23-7-23  C93,187,39,199.5,39,199.5z"
     id="path3064" /><path
     fill="#FFFFFF"
     stroke="#000000"
     stroke-width="3"
     stroke-miterlimit="10"
     d="M95.125,131.85c0,0,5.528,1.696,10.966,1.454  c11.673,2.324,49.608-20.819,69.992-8.823C134.275,154.998,91.253,135.985,95.125,131.85z"
     id="path3066" /><path
     fill="#FFFFFF"
     stroke="#000000"
     stroke-width="3"
     stroke-miterlimit="10"
     d="M526.014,28.308  c-33.678,8.847-82.715,138.237-91.656,146.303C449.5,168.5,455.5,167.5,474.5,158C508,147.5,538.559,55.855,526.014,28.308z"
     id="path3068" /><path
     fill="#FFFFFF"
     stroke="#000000"
     stroke-width="3"
     stroke-miterlimit="10"
     d="M11,113c12-2.5,65,18.5,65,18.5s4,20,22,43.5  C60.5,188,11,113,11,113z"
     id="path3070" /><path
     fill="#FFFFFF"
     stroke="#000000"
     stroke-width="3"
     stroke-miterlimit="10"
     d="M458.943,180.652  c-29.216,20.326-188.613-8.029-174.951,77.746c15.194,40.282,53.829,52.791,90.182,38.041  C410.528,281.693,456.67,219.695,458.943,180.652z"
     id="path3072" /></svg>
