<?xml version="1.0" encoding="UTF-8" standalone="no"?>
<!-- Generator: Adobe Illustrator 15.1.0, SVG Export Plug-In  -->

<svg
   xmlns:dc="http://purl.org/dc/elements/1.1/"
   xmlns:cc="http://creativecommons.org/ns#"
   xmlns:rdf="http://www.w3.org/1999/02/22-rdf-syntax-ns#"
   xmlns:svg="http://www.w3.org/2000/svg"
   xmlns="http://www.w3.org/2000/svg"
   xmlns:xlink="http://www.w3.org/1999/xlink"
   xmlns:sodipodi="http://sodipodi.sourceforge.net/DTD/sodipodi-0.dtd"
   xmlns:inkscape="http://www.inkscape.org/namespaces/inkscape"
   version="1.1"
   x="0px"
   y="0px"
   width="540px"
   height="413px"
   viewBox="0 0 540 413"
   enable-background="new 0 0 540 413"
   xml:space="preserve"
   id="svg2"
   inkscape:version="0.48.4 r9939"
   sodipodi:docname="laululintu_0.svg"><metadata
     id="metadata33"><rdf:RDF><cc:Work
         rdf:about=""><dc:format>image/svg+xml</dc:format><dc:type
           rdf:resource="http://purl.org/dc/dcmitype/StillImage" /></cc:Work></rdf:RDF></metadata><sodipodi:namedview
     pagecolor="#ffffff"
     bordercolor="#666666"
     borderopacity="1"
     objecttolerance="10"
     gridtolerance="10"
     guidetolerance="10"
     inkscape:pageopacity="0"
     inkscape:pageshadow="2"
     inkscape:window-width="640"
     inkscape:window-height="480"
     id="namedview31"
     showgrid="false"
     inkscape:zoom="0.5"
     inkscape:cx="270"
     inkscape:cy="206.5"
     inkscape:window-x="0"
     inkscape:window-y="23"
     inkscape:window-maximized="0"
     inkscape:current-layer="svg2" /><defs
     id="defs4" /><path
     fill="#FFFFFF"
     stroke="#000000"
     stroke-width="3"
     stroke-miterlimit="10"
     d="M371.5,16l-43,28.5C325,37,300,20.667,300,20.667  S360.5,10,371.5,16z"
     id="path9" /><path
     fill="#FFFFFF"
     stroke="#000000"
     stroke-width="3"
     stroke-miterlimit="10"
     d="M370.5,54.5c-3,4-27,8-31.5,14.5  c-0.5-8-7-19.5-7-19.5L370.5,54.5z"
     id="path11" /><path
     fill="#FFFFFF"
     stroke="#000000"
     stroke-width="3"
     stroke-miterlimit="10"
     d="M417,166c-53,23-82-8-97.5-6L289,134.5  C289,134.5,375.5,109.5,417,166z"
     id="path13" /><path
     fill="#FFFFFF"
     stroke="#000000"
     stroke-width="3"
     stroke-miterlimit="10"
     d="M173,300.5c-0.5,7.5,39.5,22.5,52.5,16s17-9,17-9  s25-1-0.5-9S204,304,173,300.5z"
     id="path15" /><path
     fill="#FFFFFF"
     stroke="#000000"
     stroke-width="3"
     stroke-miterlimit="10"
     d="M388,239c2.5,1.5,54.5-17,54.5-17  c-6.5-7.5-34.75,4.25-34.75,4.25L438.5,195c-7.5-1.5-38.5,24-38.5,24l13.5-35c0,0-21,21-24,39c-13.5-12.5-56-4-56-4l-1.5,7  c0,0,43.5-8.5,55.5,4.5C387.5,230.5,385.5,237.5,388,239z"
     id="path17" /><path
     fill="#FFFFFF"
     stroke="#000000"
     stroke-width="3"
     stroke-miterlimit="10"
     d="M241.5,389l15.5-25c0,0-8,30.5,3.5,36l5-38  c0,0,1,16.5,19.5,21l-19-33c-12.5,0.5-12.5-41.5-12.5-41.5l-6,2.5c0,0-1,34,10.5,43.5C258,354.5,233.5,377.5,241.5,389z"
     id="path19" /><path
     fill="#FFFFFF"
     stroke="#000000"
     stroke-width="3"
     stroke-miterlimit="10"
     d="M245,312c-6.5-2.5,9-111-14.5-121l6.5-50.5  l45-10.5C421,209.5,251.5,314.5,245,312z"
     id="path21" /><path
     fill="#FFFFFF"
     stroke="#000000"
     stroke-width="3"
     stroke-miterlimit="10"
     d="M132.5,267c50,7.5,109.5-87,112-104.5  s-7.5-22-7.5-22S129,183.5,132.5,267z"
     id="path23" /><path
     fill="#FFFFFF"
     stroke="#000000"
     stroke-width="3"
     stroke-miterlimit="10"
     d="M172.5,42.5l38.833,0.167  C182.5,89,230.667,136,230.667,136S237,141.5,251,140.5c20-1,71-26,87.667-67c4-30-38.667-52.833-38.667-52.833  C235.5,11.5,172.5,42.5,172.5,42.5z"
     id="path25" /><path
     fill="#FFFFFF"
     stroke="#000000"
     stroke-width="3"
     stroke-miterlimit="10"
     d="M242,49c-6.5-11.5,4-28,4-28s34-3.666,54-0.333  c0,0,25.5,37.333-9,43.333C266,67,248.5,60.5,242,49z"
     id="path27" /><ellipse
     fill="#FFFFFF"
     stroke="#000000"
     stroke-width="3"
     stroke-miterlimit="10"
     cx="281.75"
     cy="29.5"
     rx="12.25"
     ry="9"
     id="ellipse29" /></svg>
