<?xml version="1.0" encoding="UTF-8" standalone="no"?>
<!-- Generator: Adobe Illustrator 15.1.0, SVG Export Plug-In  -->

<svg
   xmlns:dc="http://purl.org/dc/elements/1.1/"
   xmlns:cc="http://creativecommons.org/ns#"
   xmlns:rdf="http://www.w3.org/1999/02/22-rdf-syntax-ns#"
   xmlns:svg="http://www.w3.org/2000/svg"
   xmlns="http://www.w3.org/2000/svg"
   xmlns:xlink="http://www.w3.org/1999/xlink"
   xmlns:sodipodi="http://sodipodi.sourceforge.net/DTD/sodipodi-0.dtd"
   xmlns:inkscape="http://www.inkscape.org/namespaces/inkscape"
   version="1.1"
   x="0px"
   y="0px"
   width="540px"
   height="413px"
   viewBox="0 0 540 413"
   enable-background="new 0 0 540 413"
   xml:space="preserve"
   id="svg3078"
   inkscape:version="0.48.4 r9939"
   sodipodi:docname="mansikki_0.svg"><metadata
     id="metadata3140"><rdf:RDF><cc:Work
         rdf:about=""><dc:format>image/svg+xml</dc:format><dc:type
           rdf:resource="http://purl.org/dc/dcmitype/StillImage" /></cc:Work></rdf:RDF></metadata><sodipodi:namedview
     pagecolor="#ffffff"
     bordercolor="#666666"
     borderopacity="1"
     objecttolerance="10"
     gridtolerance="10"
     guidetolerance="10"
     inkscape:pageopacity="0"
     inkscape:pageshadow="2"
     inkscape:window-width="640"
     inkscape:window-height="480"
     id="namedview3138"
     showgrid="false"
     inkscape:zoom="0.5"
     inkscape:cx="410.44323"
     inkscape:cy="206.5"
     inkscape:window-x="422"
     inkscape:window-y="162"
     inkscape:window-maximized="0"
     inkscape:current-layer="svg3078" /><defs
     id="defs3080" /><path
     fill="#FFFFFF"
     stroke="#000000"
     stroke-width="3"
     stroke-miterlimit="10"
     d="M317.203,335.729  c-5.643,7.677-9.385,15.092-16.294,9.432s-1.503-10.689,4.14-18.366s12.938-11.898,16.294-9.431  C324.699,319.83,322.846,328.052,317.203,335.729z"
     id="path3086" /><path
     fill="#FFFFFF"
     stroke="#000000"
     stroke-width="3"
     stroke-miterlimit="10"
     d="M396.096,323.308  c3.598,6.372,5.771,12.291,2.404,14.192s-10.997-0.937-14.595-7.308c-3.599-6.372-9.771-13.078-6.405-14.979  S392.497,316.937,396.096,323.308z"
     id="path3088" /><path
     fill="#FFFFFF"
     stroke="#000000"
     stroke-width="3"
     stroke-miterlimit="10"
     d="M374.459,340.673  c0.857,8.518-2.122,14.37-6.656,14.827c-4.533,0.457-8.903-4.656-9.762-13.173c-0.857-8.518,6.655-22.827,6.655-22.827  S373.601,332.156,374.459,340.673z"
     id="path3090" /><ellipse
     fill="#FFFFFF"
     stroke="#000000"
     stroke-width="3"
     stroke-miterlimit="10"
     cx="346.25"
     cy="299"
     rx="49.75"
     ry="38.5"
     id="ellipse3092" /><path
     fill="#FFFFFF"
     stroke="#000000"
     stroke-width="3"
     stroke-miterlimit="10"
     d="M312,117.5c0,5-2.5,6-12,8.5s-14.5,3.5-23,1  s-4.5-9.5-23.5-18.5l-9-16C264,96,292,79.5,312,117.5z"
     id="path3094" /><path
     fill="#FFFFFF"
     stroke="#000000"
     stroke-width="3"
     stroke-miterlimit="10"
     d="M205.5,24.5c-4,1-29.5,7.5-18,43L199,68  C191.5,38.5,209.5,23.5,205.5,24.5z"
     id="path3096" /><path
     fill="#FFFFFF"
     stroke="#000000"
     stroke-width="3"
     stroke-miterlimit="10"
     d="M237,43c-2-3.5,0.5,25-12,27s15,13,15,13  C251.5,71.5,239,46.5,237,43z"
     id="path3098" /><path
     fill="#FFFFFF"
     stroke="#000000"
     stroke-width="3"
     stroke-miterlimit="10"
     d="M185,69.5c-2.375,1.5-4.469,5.781-6.57,11.578  C172.125,98.469,165.75,129.5,151.5,140c-19,14,66,49,66,49l5.5-41.5c0,0-20.5,113-0.5,141.5s20.5,19.5,20.5,19.5  c1.5,21,16.5,25.5,11.5,54.5c1,16.5,10.5,18,8.5,2.5c-1-31.5,8.5-37.5,5-54.5c50,22.5,49-4.5,51-4.5s16,23.5,9.5,46  c1.5,18,22.5,46,13.5,4.5s1-25.5-1.5-46.5c18,4.5,55.5-24,55.5-24s3,22,6,31.5s2,36,2,36l8-5c0,0-6.5-12-2.5-30.5s34-77.5,7.5-131.5  c-13-15.5-14.5-42-24.5-44.5s-9.5,9-15.5,8.5s-4.5-12-16.25-11.25S352,151.5,345.5,152c-7-4.5-1.5-5-9-6c-6,0-10.5,9.5-14.5,15  s-26,4.5-42.5-9.5s-37-75-51-80c-5.865-2.095-12.741-0.122-19.5-1C199.627,69.283,190.52,66.014,185,69.5z"
     id="path3100" /><path
     fill="#FFFFFF"
     stroke="#000000"
     stroke-width="3"
     stroke-miterlimit="10"
     d="M149,84c-11-2.5-29-8.5-25-45  c-2.5-8,23.5-4.5,34,1s12,20.5,19.5,25s5,5,5,5l-4.07,11.078C167.5,77,162.5,82.5,149,84z"
     id="path3102" /><path
     fill="#FFFFFF"
     stroke="#000000"
     stroke-width="3"
     stroke-miterlimit="10"
     d="M216.5,102c-4,1.5-4.5,20.5,5.5,25  c1.5,1,19,5.5,23.5-5C243,98,220.5,100.5,216.5,102z"
     id="path3104" /><ellipse
     fill="#FFFFFF"
     stroke="#000000"
     stroke-width="3"
     stroke-miterlimit="10"
     cx="230.5"
     cy="117.75"
     rx="5"
     ry="5.25"
     id="ellipse3106" /><path
     fill="#FFFFFF"
     stroke="#000000"
     stroke-width="3"
     stroke-miterlimit="10"
     d="M198.5,116c4.5-29-20.07-34.922-20.07-34.922  s-15.096,51.089-23.096,55.589S194,145,198.5,116z"
     id="path3108" /><ellipse
     fill="#FFFFFF"
     stroke="#000000"
     stroke-width="3"
     stroke-miterlimit="10"
     cx="256.5"
     cy="181.5"
     rx="14"
     ry="18.5"
     id="ellipse3110" /><path
     fill="#FFFFFF"
     stroke="#000000"
     stroke-width="3"
     stroke-miterlimit="10"
     d="M379.5,219c1.5-19.5,31.5-25,34-1.5  c-1,9.5-6,18-13.5,14S384,226.5,379.5,219z"
     id="path3112" /><path
     fill="#FFFFFF"
     stroke="#000000"
     stroke-width="3"
     stroke-miterlimit="10"
     d="M225.5,281c5,3.5,12,5.5,15.5,5s11.5-0.5,17.5-14  c0.5-22.5-14.5-36.5-21-40s-12-6-18-0.5s-4,10.5-5.5,12.5s2.5,30.5,2.5,30.5S220.5,277.5,225.5,281z"
     id="path3114" /><path
     fill="#FFFFFF"
     stroke="#000000"
     stroke-width="3"
     stroke-miterlimit="10"
     d="M328.75,218.75c-5.75,5.25-9,36.5-7.875,39.375  s2,4,10.063,10.938s8,29,12.531,29.969C359.5,299.5,358,291.5,363.234,280.516C365.5,265,348.5,246.5,346.5,242s5-14.5,0-22  S334.5,213.5,328.75,218.75z"
     id="path3116" /><path
     fill="#FFFFFF"
     stroke="#000000"
     stroke-width="3"
     stroke-miterlimit="10"
     d="M282.5,155c0,0,1,13,4.5,16.5s11,0,17,7  s2,5,5.5,9s11-0.5,15.5,2s10,9,20.5,6S356,169,357,164s-16.5-9-16.5-9s-5-3.5-18.5,6S282.5,155,282.5,155z"
     id="path3118" /><path
     fill="#FFFFFF"
     stroke="#000000"
     stroke-width="3"
     stroke-miterlimit="10"
     d="M410.5,176.5c0,0,2.5,4,17,0.5  c23-15.5-23.5-26-51-92c-11.5-26,5.25-37.75,5.25-37.75S393.5,36,417.5,38.5S398,51,398,51s34.5-3.5,40-1s-0.5,19-19.5,22.5  s-34-8-33,6.5c0,30,46.5,64.5,54,73s15.5,26.5-2,34s-20.5,1-20.5,1L410.5,176.5z"
     id="path3120" /><path
     fill="#FFFFFF"
     stroke="#000000"
     stroke-width="3"
     stroke-miterlimit="10"
     d="M225.5,383.5c-0.5,2,9,8.5,15,5S251,378,251,378  s-2.5,7,0.5,13.5c10,10,30,0.5,31-5c-1-19.5-24-21.5-24-21.5S235,367.5,225.5,383.5z"
     id="path3122" /><path
     fill="#FFFFFF"
     stroke="#000000"
     stroke-width="3"
     stroke-miterlimit="10"
     d="M312.75,387.5c-0.5,2,15.5,4.5,21.5,1  c3.5-3.5,5-10,5-10s1,3.5,4,10c5.25,3.75,18.25,4.75,19.25-0.75c-1.25-20.75-20-32.5-24-32.75S309.5,371,312.75,387.5z"
     id="path3124" /><path
     fill="#FFFFFF"
     stroke="#000000"
     stroke-width="3"
     stroke-miterlimit="10"
     d="M408,348.75c0,0-10,11-6.25,19.5  s3.75,11.75,21.75,10c3.75-0.5,0.25-14.75,0.25-14.75l3.75,5.25c0,0,11.25,2.75,13-7.5C434.75,353.5,408,348.75,408,348.75z"
     id="path3126" /><path
     fill="#FFFFFF"
     stroke="#000000"
     stroke-width="3"
     stroke-miterlimit="10"
     d="M172,88.5c-3,0-15-2.5-24,11s3.5,27,8.5,28.5  s13.5,0.5,20-12S177,91,172,88.5z"
     id="path3128" /><ellipse
     fill="#FFFFFF"
     stroke="#000000"
     stroke-width="3"
     stroke-miterlimit="10"
     cx="170"
     cy="109.75"
     rx="6.5"
     ry="6.25"
     id="ellipse3130" /><path
     fill="#FFFFFF"
     stroke="#000000"
     stroke-width="3"
     stroke-miterlimit="10"
     d="M217.473,215.719  c-9.048,24.514-45.246,33.732-80.851,20.591c-35.606-13.142-55.55-30.056-48.086-68.183s45.246-33.732,80.852-20.591  S226.521,191.205,217.473,215.719z"
     id="path3132" /><path
     fill="#FFFFFF"
     stroke="#000000"
     stroke-width="3"
     stroke-miterlimit="10"
     d="M132.399,180.519  c4.101,8.481-3.858,7.993-10.982,10.192s-13.758,1.201-14.816-2.229c-1.059-3.43,3.858-7.993,10.982-10.192S127,175,132.399,180.519  z"
     id="path3134" /><path
     fill="#FFFFFF"
     stroke="#000000"
     stroke-width="3"
     stroke-miterlimit="10"
     d="M186.051,207.125  c-4.896,8.049-8.808,1.101-14.523-3.687c-5.715-4.788-8.48-10.9-6.174-13.652c2.305-2.751,8.807-1.101,14.522,3.687  S187.752,199.594,186.051,207.125z"
     id="path3136" /></svg>
