<?xml version="1.0" encoding="UTF-8" standalone="no"?>
<!-- Generator: Adobe Illustrator 15.1.0, SVG Export Plug-In  -->

<svg
   xmlns:dc="http://purl.org/dc/elements/1.1/"
   xmlns:cc="http://creativecommons.org/ns#"
   xmlns:rdf="http://www.w3.org/1999/02/22-rdf-syntax-ns#"
   xmlns:svg="http://www.w3.org/2000/svg"
   xmlns="http://www.w3.org/2000/svg"
   xmlns:sodipodi="http://sodipodi.sourceforge.net/DTD/sodipodi-0.dtd"
   xmlns:inkscape="http://www.inkscape.org/namespaces/inkscape"
   version="1.1"
   x="0px"
   y="0px"
   width="540px"
   height="413px"
   viewBox="0 0 540 413"
   enable-background="new 0 0 540 413"
   xml:space="preserve"
   id="svg2"
   inkscape:version="0.48.4 r9939"
   sodipodi:docname="ohjaaja.svg"><metadata
     id="metadata66"><rdf:RDF><cc:Work
         rdf:about=""><dc:format>image/svg+xml</dc:format><dc:type
           rdf:resource="http://purl.org/dc/dcmitype/StillImage" /></cc:Work></rdf:RDF></metadata><sodipodi:namedview
     pagecolor="#ffffff"
     bordercolor="#666666"
     borderopacity="1"
     objecttolerance="10"
     gridtolerance="10"
     guidetolerance="10"
     inkscape:pageopacity="0"
     inkscape:pageshadow="2"
     inkscape:window-width="640"
     inkscape:window-height="480"
     id="namedview64"
     showgrid="false"
     inkscape:zoom="0.5"
     inkscape:cx="270"
     inkscape:cy="206.5"
     inkscape:window-x="0"
     inkscape:window-y="23"
     inkscape:window-maximized="0"
     inkscape:current-layer="svg2" /><defs
     id="defs4" /><path
     fill="#FFFFFF"
     stroke="#000000"
     stroke-width="3"
     stroke-miterlimit="10"
     d="M421.287,215.493l4.963,1.757  c11,4.438,1.064,17.076,1.064,17.076L422.313,231L421.287,215.493z"
     id="path8" /><circle
     fill="#FFFFFF"
     stroke="#000000"
     stroke-width="3"
     stroke-miterlimit="10"
     cx="192.119"
     cy="72.421"
     r="46.497"
     id="circle10" /><ellipse
     fill="#FFFFFF"
     stroke="#000000"
     stroke-width="3"
     stroke-miterlimit="10"
     cx="263.693"
     cy="90.184"
     rx="27.167"
     ry="28.734"
     id="ellipse12" /><path
     fill="#FFFFFF"
     stroke="#000000"
     stroke-width="3"
     stroke-miterlimit="10"
     d="M272.5,178.962  c0,6.925-5.614,12.538-12.539,12.538h-74.922c-6.925,0-12.539-5.613-12.539-12.538v-45.924c0-6.925,5.614-12.538,12.539-12.538  h74.922c6.925,0,12.539,5.613,12.539,12.538V178.962z"
     id="path14" /><path
     fill="#FFFFFF"
     stroke="#000000"
     stroke-width="3"
     stroke-miterlimit="10"
     d="M147.5,198.275c0,2.886-2.339,5.225-5.225,5.225  h-17.551c-2.886,0-5.225-2.339-5.225-5.225v-91.551c0-2.886,2.339-5.225,5.225-5.225h17.551c2.886,0,5.225,2.339,5.225,5.225  V198.275z"
     id="path16" /><polygon
     fill="#FFFFFF"
     stroke="#000000"
     stroke-width="3"
     stroke-miterlimit="10"
     points="172.5,134.329 147.5,106.379   147.5,197.283 172.5,176.908 "
     id="polygon18" /><path
     fill="#FFFFFF"
     stroke="#000000"
     stroke-width="3"
     stroke-miterlimit="10"
     d="M274.253,156.993c0,0,6.811,1.718,8.247,4.416  c0,0,0.393,2.96,0,7.662c-0.392,4.702-8.358,8.882-8.358,8.882L274.253,156.993z"
     id="path20" /><path
     fill="#FFFFFF"
     stroke="#000000"
     stroke-width="3"
     stroke-miterlimit="10"
     d="M282.762,171.423l-0.218-10.014  c0,0,3.656,1.045,15.651-0.696c11.994-1.742,17.229-33.784,17.229-33.784l4.174-4.877c0,0,26.312,4.374,35.719-5.03  c2.783,0.349,8.405,16.422,10.339,18.614c1.934,2.191,23.943,26.818,25.511,33.436s0,25.077,0,25.077l-10.623-3.657  c0,0,6.618-14.453,6.618-18.633s-16.718-22.988-18.46-22.292c-1.741,0.697,5.573,44.582,5.573,44.582s2.316,43.865-3.135,47.717  c-5.452,3.851-20.253,15.234-30.302,15.673c-6.617-7.314-14.976-104.487-17.414-105.707s-14.628,16.893-19.853,19.33  S282.762,171.423,282.762,171.423z"
     id="path22" /><path
     fill="#FFFFFF"
     stroke="#000000"
     stroke-width="3"
     stroke-miterlimit="10"
     d="M319.767,115.086c0,0-6.617,8.185-11.145,6.27  s0-11.842,0-11.842l-9.962-17.396c0,0-4.944-10.392,3.641-17.482c0,0,1.968-11.792,14.506-21.544  c47.02-5.922,55.774,39.729,56.075,42.491c-1.393,7.662-9.551,12.036-17.564,21.439c-8.015,9.404-35.719,5.03-35.719,5.03  l-4.154-2.757L319.767,115.086z"
     id="path24" /><path
     fill="#FFFFFF"
     stroke="#000000"
     stroke-width="3"
     stroke-miterlimit="10"
     d="M394.041,111.081  c-3.788-13.714-36.477-45.541-36.477-45.541s11.791,11.452,15.317,30.042c-1.24,4.789-2.382,5.52-7.51,11.385  c2.678,6.335,8.555,18.481,8.555,18.481l-2.481-16.849l9.404,16.718l-5.094-20.244l13.452,13.845l-7.053-18.024L394.041,111.081z"
     id="path26" /><path
     fill="#FFFFFF"
     stroke="#000000"
     stroke-width="3"
     stroke-miterlimit="10"
     d="M309.697,60.016c0,0-14.31-18.244-11.697-35.137  s21.854-14.105,28.255-7.837c7.184,4.658,49.239,68.701,52.728,71.396c-4.011-2.695-26.997-42.487-62.176-35.348  C312.977,56.225,309.697,60.016,309.697,60.016z"
     id="path28" /><path
     fill="#FFFFFF"
     stroke="#000000"
     stroke-width="3"
     stroke-miterlimit="10"
     d="M342.504,37.248c0,0,7.652-10.541,18.362-6.884  c4.519,1.543,9.711,4.271,14.391,7.97c6.413,5.068,11.863,11.957,13.298,20.111c2.482,14.105-9.572,29.993-9.572,29.993  L342.504,37.248z"
     id="path30" /><path
     fill="#FFFFFF"
     stroke="#000000"
     stroke-width="3"
     stroke-miterlimit="10"
     d="M377.453,32.977  c2.612-2.873,9.143,0.914,7.445,5.616c-1.698,4.702-4.554,4.415-4.554,4.415l-5.532-5.015  C374.813,37.993,374.841,35.85,377.453,32.977z"
     id="path32" /><ellipse
     fill="#FFFFFF"
     stroke="#000000"
     stroke-width="3"
     stroke-miterlimit="10"
     cx="192.25"
     cy="74.249"
     rx="28.342"
     ry="27.95"
     id="ellipse34" /><ellipse
     fill="#FFFFFF"
     stroke="#000000"
     stroke-width="3"
     stroke-miterlimit="10"
     cx="263.954"
     cy="90.053"
     rx="13.322"
     ry="14.236"
     id="ellipse36" /><path
     fill="#FFFFFF"
     stroke="#000000"
     stroke-width="3"
     stroke-miterlimit="10"
     d="M342.323,257.393c0,0,0.476,85.912-5.119,89.83  c0,0,0.652,4.704,5.119,5.225c8.094-1.045,5.588-96.555,5.588-96.555L342.323,257.393z"
     id="path38" /><path
     fill="#FFFFFF"
     stroke="#000000"
     stroke-width="3"
     stroke-miterlimit="10"
     d="M364.006,246.923c0,0,1.301,87.239-3.662,91.94  c0,0,0.522,4.702,7.575,1.307c4.18-2.352,2.012-97.44,2.012-97.44L364.006,246.923z"
     id="path40" /><path
     fill="#FFFFFF"
     stroke="#000000"
     stroke-width="3"
     stroke-miterlimit="10"
     d="M381.715,190.895c0,0-5.161,0.915-7.389,4.305  c0,0,0.313,8.62,0.352,10.705s2.547,3.265,7.037,6.007c4.489,2.743,6.579-2.612,4.751-4.963c-1.829-2.351-6.069-3.918-6.069-3.918  s0.976-1.556,2.935-1.627l11.493,3.978c1.567-3.266-5.453-11.851-5.453-11.851L381.715,190.895z"
     id="path42" /><path
     fill="#FFFFFF"
     stroke="#000000"
     stroke-width="3"
     stroke-miterlimit="10"
     d="M399.004,269.249l-28.996-24.946l-0.077-1.573  c0,0,2.429-0.974,2.871-3.897c1.909-4.194,2.072-32.028,2.072-32.028s5.759,4.581,6.841,5.107c1.094,1.307,7.755,0.653,4.751-4.963  c0.13-1.045-6.069-3.918-6.069-3.918c0.061-0.915,2.935-1.627,2.935-1.627l45.19,15.993c10.122,3.592,3.396,13.845,3.396,13.845  l-17.633,32.914C414.285,264.155,408.277,274.669,399.004,269.249z"
     id="path44" /><path
     fill="#FFFFFF"
     stroke="#000000"
     stroke-width="3"
     stroke-miterlimit="10"
     d="M337.204,347.223c0,0-7.163,2.177-6.378,5.225  c0.784,3.048,23.247,23.77,25.338,25.338s9.144,2.525,7.314-4.963c-1.741-5.398-20.143-14.716-20.737-16.195  c-0.595-1.48,0.113-1.563-0.418-4.18C338.053,352.273,337.204,347.223,337.204,347.223z"
     id="path46" /><path
     fill="#FFFFFF"
     stroke="#000000"
     stroke-width="3"
     stroke-miterlimit="10"
     d="M360.344,338.863c0,0-4.354,1.829-3.569,3.832  c0.783,2.003,19.154,15.919,23.771,18.896c4.18,2.002,9.317-1.307,7.314-6.53c-1.742-3.919-19.33-8.796-20.637-9.753  c-1.306-0.957-1.045-2.352-0.91-4.462C361.04,342.956,360.344,338.863,360.344,338.863z"
     id="path48" /><path
     fill="#FFFFFF"
     stroke="#000000"
     stroke-width="3"
     stroke-miterlimit="10"
     d="M211.5,191.5v5.783c0,0,1.289,3.217,5.632,3.217  s19.656,0,24.227,0c4.571,0,3.142-3.738,3.142-3.738V191.5H211.5z"
     id="path50" /><polygon
     fill="#FFFFFF"
     stroke="#000000"
     stroke-width="3"
     stroke-miterlimit="10"
     points="220.853,200.5 193.033,291.799   185.588,392.5 187.939,392.5 190.029,400.424 192.38,391.717 195.775,390.498 199.955,292.455 225.555,200.5 "
     id="polygon52" /><polygon
     fill="#FFFFFF"
     stroke="#000000"
     stroke-width="3"
     stroke-miterlimit="10"
     points="239.399,200.5 279.191,291.799   291.729,392.5 288.247,392.5 287.202,400.228 284.416,391.423 280.236,390.154 271.529,292.284 234.697,200.5 "
     id="polygon54" /><polygon
     fill="#FFFFFF"
     stroke="#000000"
     stroke-width="3"
     stroke-miterlimit="10"
     points="229.3,199.981 239.442,286.115   241.228,366.5 244.885,366.5 246.452,374.625 248.02,365.888 250.632,365.001 248.02,286.496 233.217,199.942 "
     id="polygon56" /><ellipse
     fill="#FFFFFF"
     stroke="#000000"
     stroke-width="3"
     stroke-miterlimit="10"
     cx="308.448"
     cy="85.743"
     rx="11.146"
     ry="13.323"
     id="ellipse58" /><ellipse
     transform="matrix(0.9629 -0.2697 0.2697 0.9629 -12.5453 84.8824)"
     fill="#FFFFFF"
     stroke="#000000"
     stroke-width="3"
     stroke-miterlimit="10"
     cx="302.614"
     cy="88.094"
     rx="3.657"
     ry="5.224"
     id="ellipse60" /><ellipse
     transform="matrix(0.9599 -0.2804 0.2804 0.9599 -13.4654 99.224)"
     fill="#FFFFFF"
     stroke="#000000"
     stroke-width="3"
     stroke-miterlimit="10"
     cx="340"
     cy="96.666"
     rx="8.333"
     ry="1.668"
     id="ellipse62" /></svg>