<?xml version="1.0" encoding="UTF-8" standalone="no"?>
<!-- Generator: Adobe Illustrator 15.1.0, SVG Export Plug-In  -->

<svg
   xmlns:dc="http://purl.org/dc/elements/1.1/"
   xmlns:cc="http://creativecommons.org/ns#"
   xmlns:rdf="http://www.w3.org/1999/02/22-rdf-syntax-ns#"
   xmlns:svg="http://www.w3.org/2000/svg"
   xmlns="http://www.w3.org/2000/svg"
   xmlns:sodipodi="http://sodipodi.sourceforge.net/DTD/sodipodi-0.dtd"
   xmlns:inkscape="http://www.inkscape.org/namespaces/inkscape"
   version="1.1"
   x="0px"
   y="0px"
   width="540px"
   height="413px"
   viewBox="0 0 540 413"
   enable-background="new 0 0 540 413"
   xml:space="preserve"
   id="svg2"
   inkscape:version="0.48.4 r9939"
   sodipodi:docname="olivia_0.svg"><metadata
     id="metadata56"><rdf:RDF><cc:Work
         rdf:about=""><dc:format>image/svg+xml</dc:format><dc:type
           rdf:resource="http://purl.org/dc/dcmitype/StillImage" /></cc:Work></rdf:RDF></metadata><sodipodi:namedview
     pagecolor="#ffffff"
     bordercolor="#666666"
     borderopacity="1"
     objecttolerance="10"
     gridtolerance="10"
     guidetolerance="10"
     inkscape:pageopacity="0"
     inkscape:pageshadow="2"
     inkscape:window-width="640"
     inkscape:window-height="480"
     id="namedview54"
     showgrid="false"
     inkscape:zoom="0.5"
     inkscape:cx="270"
     inkscape:cy="206.5"
     inkscape:window-x="0"
     inkscape:window-y="23"
     inkscape:window-maximized="0"
     inkscape:current-layer="svg2" /><defs
     id="defs4" /><path
     fill-rule="evenodd"
     clip-rule="evenodd"
     fill="#FFFFFF"
     stroke="#000000"
     stroke-width="3"
     stroke-miterlimit="10"
     d="  M259.423,176.48c-5.446,1.731-26.865,31.073-28.723,34.788c-1.858,3.714-5.199,20.553-4.271,26.496  c0.93,5.942,4.892,26.745,6.872,28.723c1.979,1.979,11.885,2.972,17.061-6.215c4.011-4.95-10.128-13.595-10.128-25.48  c0.987-8.417,13.373-23.274,15.467-23.651c11.277,17.213-10.021,63.764-10.093,74.411c0.569,6.685,11.463,26.495,42.659,24.513  c7.43,0.496,16.841,0,38.134-12.628c4.953-3.714,8.914-27.978-2.475-66.111c-3.961-25.257-19.81-44.571-24.515-45.313  C289.258,187.251,264.87,174.748,259.423,176.48z"
     id="path8" /><path
     fill-rule="evenodd"
     clip-rule="evenodd"
     fill="#FFFFFF"
     stroke="#000000"
     stroke-width="3"
     stroke-miterlimit="10"
     d="  M253.767,171.615c4.204,2.055,31.796,14.14,45.001,14.248c11.389-0.989,27.137-18.422,33.575-33.775  c2.972-15.845,0-10.892,0.991-22.282c0-30.705-23.272-44.075-25.255-44.075c0,1.951,0,4.95-4.458,10.399  c-0.496-7.428-8.913-12.379-8.913-12.379s5.942,14.36-5.942,15.847c3.465-10.4-0.993-15.847-0.993-15.847  s-1.731,20.057-12.131,18.074c8.163-12.265,2.724-20.056,2.724-20.056s-13.902,22.443-39.616,19.313  c-8.574,10.31-9.652,16.449-10.399,25.752C228.842,147.138,249.562,169.561,253.767,171.615z"
     id="path10" /><path
     fill-rule="evenodd"
     clip-rule="evenodd"
     fill="#FFFFFF"
     stroke="#000000"
     stroke-width="3"
     stroke-miterlimit="10"
     d="  M220.921,206.564c9.709-1.599-17.123-34.245,2.455-105.653c0.55,1.041,15.664,10.482,9.925-10.724  c36.15-7.428,17.827-26.742,17.827-26.742s5.074-3.589,15.972-3.714c30.455,3.342,47.415,20.552,47.415,20.552  s31.695,23.275,23.771,42.095c0-20.799-30.206-36.648-30.206-36.648s1.982,1.485-4.458,10.399  c-0.952-8.401-8.979-12.587-8.979-12.587s6.159,14.077-5.877,16.055c3.427-7.913-0.993-15.847-0.993-15.847  s-2.1,19.912-12.131,18.074c8.171-12.627,2.724-20.056,2.724-20.056s-14.113,23.524-39.616,19.313  c-9.163,6.933-11.021,28.103-11.391,27.732c-5.2,69.083,9.408,70.197,0.991,89.139c-21.791,21.914-23.278,3.467-23.278,3.467  s11.02,7.924,10.894-2.972c-27.979-0.496-15.842-14.856-15.842-14.856s1.36,11.638,16.342,8.913  c-13.62-10.523-5.943-16.837-5.943-16.837S214.112,211.147,220.921,206.564z"
     id="path12" /><path
     fill-rule="evenodd"
     clip-rule="evenodd"
     fill="#FFFFFF"
     stroke="#000000"
     stroke-width="3"
     stroke-miterlimit="10"
     d="  M233.117,89.909c-1.812,3.375-5.528,4.903-8.297,3.415c-2.773-1.488-3.51-7.5-1.427-11.557c0.301-1.276,4.731-2.757,7.985-0.659  C233.406,83.524,234.929,86.536,233.117,89.909z"
     id="path14" /><path
     fill-rule="evenodd"
     clip-rule="evenodd"
     fill="#FFFFFF"
     stroke="#000000"
     stroke-width="3"
     stroke-miterlimit="10"
     d="  M223.394,81.767c-9.9-11.885-27.236,6.438-22.286,16.342c3.719,7.428,22.548,7.862,21.958,2.381c-2.34-6.168,2.378-6.94,2.378-6.94  S219.626,91.905,223.394,81.767z"
     id="path16" /><path
     fill-rule="evenodd"
     clip-rule="evenodd"
     fill="#FFFFFF"
     stroke="#000000"
     stroke-width="3"
     stroke-miterlimit="10"
     d="  M218.629,78.358c-2.469-0.458-6.622-29.275,13.186-19.863c6.108,3.649,5.156,10.775,3.173,16.058  c-2.283,3.285-3.288,6.503-3.608,6.555c-4.501-2.445-7.388-0.075-7.985,0.659C223.394,81.767,222.153,79.651,218.629,78.358z"
     id="path18" /><path
     fill-rule="evenodd"
     clip-rule="evenodd"
     fill="#FFFFFF"
     stroke="#000000"
     stroke-width="3"
     stroke-miterlimit="10"
     d="  M231.379,81.107c0,0,12.579-24.324,18.522-18.875c20.222,22.089-17.595,28.448-16.784,27.676  C236.271,84.738,231.379,81.107,231.379,81.107z"
     id="path20" /><path
     fill-rule="evenodd"
     clip-rule="evenodd"
     fill="#FFFFFF"
     stroke="#000000"
     stroke-width="3"
     stroke-miterlimit="10"
     d="  M297.68,68.396c0,0,9.226-19.625,6.751-24.577c-0.591-0.53,5.133,4.276,13.553,4.77c2.475,9.906-2.675,28.883-5.806,29.573  C308.348,74.395,297.68,68.396,297.68,68.396z"
     id="path22" /><path
     fill-rule="evenodd"
     clip-rule="evenodd"
     fill="#FFFFFF"
     stroke="#000000"
     stroke-width="3"
     stroke-miterlimit="10"
     d="  M283.813,38.189c1.981-13.865,16.343-5.201,19.313-5.942c1.737-1.735-6.686-22.779,1.239-23.277c6.686,0,0.74,18.324,4.208,19.313  c3.469,0.992,4.952-21.292,10.153-18.571c5.2,2.728-4.461,19.563-1.24,21.049c3.222,1.486,5.201-19.066,10.897-14.363  c5.694,4.707-5.2,20.056-5.2,20.056s-1.981,9.906-5.199,12.135c0,0.25-11.146-1.733-15.354-6.436  C298.422,37.446,283.564,42.646,283.813,38.189z"
     id="path24" /><path
     fill-rule="evenodd"
     clip-rule="evenodd"
     fill="#FFFFFF"
     stroke="#000000"
     stroke-width="3"
     stroke-miterlimit="10"
     d="  M257.814,106.036c-20.058,12.13-3.719,35.656-1.612,37.017c2.107,1.361,10.032,5.325,16.222,5.325c6.188,0,9.711-0.668,14.112-5.45  C297.926,120.15,276.635,100.587,257.814,106.036z"
     id="path26" /><path
     fill-rule="evenodd"
     clip-rule="evenodd"
     fill="#FFFFFF"
     stroke="#000000"
     stroke-width="3"
     stroke-miterlimit="10"
     d="  M303.621,131.536c1.241,3.221,7.925,5.45,13.372,4.707c5.445-0.743,10.896-5.2,8.666-10.65  C312.041,94.894,298.177,128.321,303.621,131.536z"
     id="path28" /><path
     fill-rule="evenodd"
     clip-rule="evenodd"
     fill="#FFFFFF"
     stroke="#000000"
     stroke-width="3"
     stroke-miterlimit="10"
     d="  M287.749,140.07c-8.913,15.349,18.571,19.063,10.648-6.686"
     id="path30" /><path
     fill-rule="evenodd"
     clip-rule="evenodd"
     fill="#FFFFFF"
     stroke="#000000"
     stroke-width="3"
     stroke-miterlimit="10"
     d="  M261.28,155.556c1.486,0,31.446,15.105,50.761,11.392c2.227,0-1.487,9.158-16.837,10.4  C277.128,179.819,259.796,155.556,261.28,155.556z"
     id="path32" /><path
     fill-rule="evenodd"
     clip-rule="evenodd"
     fill="#FFFFFF"
     stroke="#000000"
     stroke-width="3"
     stroke-miterlimit="10"
     d="  M316.43,254.77c-1.558,17.111-12.918,30.061-25.376,28.923c-12.455-1.131-21.29-15.921-19.735-33.029  c1.558-17.114,12.918-30.064,25.379-28.93C309.149,222.869,317.986,237.655,316.43,254.77z"
     id="path34" /><path
     fill-rule="evenodd"
     clip-rule="evenodd"
     fill="#FFFFFF"
     stroke="#000000"
     stroke-width="3"
     stroke-miterlimit="10"
     d="  M236.513,267.709c-4.9,2.006-1.479,9.034-5.192,11.017c-3.22-0.247-11.639-7.29-12.628-1.593c1.98,9.16,12.132,7.428,19.56,8.418  c3.352-0.671,8.417-8.187,9.656-10.665c0.93-1.859,3.194-9.905,3.949-13.085c0.25-1.06-1.066-2.309-1.066-2.309  S245.377,269.385,236.513,267.709z"
     id="path36" /><path
     fill-rule="evenodd"
     clip-rule="evenodd"
     fill="#FFFFFF"
     stroke="#000000"
     stroke-width="3"
     stroke-miterlimit="10"
     d="  M246.65,289.535c-0.991,0.25-15.083,8.646-16.322,33.16c0,4.457,4.706,9.656,6.937,10.399c2.228,0.743,11.387,2.474,17.084,6.435  c3.219,0.743,21.403-0.742,22.642-5.942c0-3.465-27.303-6.727-13.684-27.526C250.533,299.646,246.65,289.535,246.65,289.535z"
     id="path38" /><path
     fill-rule="evenodd"
     clip-rule="evenodd"
     fill="#FFFFFF"
     stroke="#000000"
     stroke-width="3"
     stroke-miterlimit="10"
     d="  M236.767,359.587c3.96,4.209,7.925-2.971,10.4-2.229s-7.181,13.127-1.485,15.106c5.694,1.978,8.912-8.418,10.646-8.172  c1.734,0.248-1.485,8.168,2.972,7.922c4.457-0.248,5.287-0.194,6.686-9.657c1.637-11.09,12.325-17.968,12.135-24.673  c-0.25-1.485-1.274-2.746-2.387-2.461c-6.361,4.844-21.384,4.106-21.384,4.106S234.787,348.94,236.767,359.587z"
     id="path40" /><path
     fill-rule="evenodd"
     clip-rule="evenodd"
     fill="#FFFFFF"
     stroke="#000000"
     stroke-width="3"
     stroke-miterlimit="10"
     d="  M291.982,310.18c2.229,9.657,0.371,21.425-1.485,24.769c-1.856,3.342-12.999,7.428-12.999,7.057  c-4.536,4.635-8.823,13.528-8.823,13.528s9.938,7.271,17.366,8.757c7.428-1.486,15.229-14.486,20.8-18.942  c5.57-4.458,18.813-39.565,17.392-46.559C317.611,302.568,303.125,310.18,291.982,310.18z"
     id="path42" /><path
     fill-rule="evenodd"
     clip-rule="evenodd"
     fill="#FFFFFF"
     stroke="#000000"
     stroke-width="3"
     stroke-miterlimit="10"
     d="  M310.554,385.833c-2.229,4.457-11.885-1.858-11.885,1.113c0,2.972,8.479,4.41,4.829,8.172c-3.649,3.761-11.516-4.828-14.857-4.456  c-3.344,0.37,12.752,6.316,3.468,10.151c-14.114,2.601-15.974-18.945-16.839-23.153c-0.864-4.207-8.542-17.828-8.542-17.828  s1.411-4.172,1.856-4.207c0.444-0.036,10.019,7.06,17.457,8.665c0.249,0.25,3.343-0.743,3.343-0.743  c6.313,7.799,10.399,8.913,14.485,16.342C304.61,382.861,312.785,381.375,310.554,385.833z"
     id="path44" /><path
     fill-rule="evenodd"
     clip-rule="evenodd"
     fill="#FFFFFF"
     stroke="#000000"
     stroke-width="3"
     stroke-miterlimit="10"
     d="  M310.119,254.566c-1.187,13.026-9.144,22.944-17.776,22.158c-8.629-0.784-14.664-11.978-13.48-25.001  c1.187-13.025,9.145-22.943,17.774-22.157C305.267,230.35,311.303,241.543,310.119,254.566z"
     id="path46" /><path
     fill-rule="evenodd"
     clip-rule="evenodd"
     fill="#FFFFFF"
     stroke="#000000"
     stroke-width="3"
     stroke-miterlimit="10"
     d="  M317.091,123.675c0.734,2.563-0.323,5.116-2.361,5.697c-2.04,0.581-4.285-1.025-5.019-3.59c-0.729-2.562,0.325-5.115,2.366-5.696  C314.115,119.505,316.36,121.111,317.091,123.675z"
     id="path48" /><path
     fill-rule="evenodd"
     clip-rule="evenodd"
     fill="#FFFFFF"
     stroke="#000000"
     stroke-width="3"
     stroke-miterlimit="10"
     d="  M225.443,93.55c-0.432,0.077-4.902,1.468-2.131,7.691c1.441,1.287,15.325,9.455,9.988-11.054  C229.333,95.055,225.973,93.707,225.443,93.55z"
     id="path50" /><ellipse
     transform="matrix(0.9686 -0.2488 0.2488 0.9686 -23.5674 71.6511)"
     fill-rule="evenodd"
     clip-rule="evenodd"
     fill="#FFFFFF"
     stroke="#000000"
     stroke-width="3"
     stroke-miterlimit="10"
     cx="271.682"
     cy="129.063"
     rx="5.943"
     ry="6.685"
     id="ellipse52" /></svg>