<?xml version="1.0" encoding="UTF-8" standalone="no"?>
<!-- Generator: Adobe Illustrator 15.1.0, SVG Export Plug-In  -->

<svg
   xmlns:dc="http://purl.org/dc/elements/1.1/"
   xmlns:cc="http://creativecommons.org/ns#"
   xmlns:rdf="http://www.w3.org/1999/02/22-rdf-syntax-ns#"
   xmlns:svg="http://www.w3.org/2000/svg"
   xmlns="http://www.w3.org/2000/svg"
   xmlns:xlink="http://www.w3.org/1999/xlink"
   xmlns:sodipodi="http://sodipodi.sourceforge.net/DTD/sodipodi-0.dtd"
   xmlns:inkscape="http://www.inkscape.org/namespaces/inkscape"
   version="1.1"
   x="0px"
   y="0px"
   width="540px"
   height="413px"
   viewBox="0.005 0 540 413"
   enable-background="new 0.005 0 540 413"
   xml:space="preserve"
   id="svg3264"
   inkscape:version="0.48.4 r9939"
   sodipodi:docname="olli_0.svg"><metadata
     id="metadata3331"><rdf:RDF><cc:Work
         rdf:about=""><dc:format>image/svg+xml</dc:format><dc:type
           rdf:resource="http://purl.org/dc/dcmitype/StillImage" /></cc:Work></rdf:RDF></metadata><sodipodi:namedview
     pagecolor="#ffffff"
     bordercolor="#666666"
     borderopacity="1"
     objecttolerance="10"
     gridtolerance="10"
     guidetolerance="10"
     inkscape:pageopacity="0"
     inkscape:pageshadow="2"
     inkscape:window-width="1600"
     inkscape:window-height="852"
     id="namedview3329"
     showgrid="false"
     inkscape:zoom="1"
     inkscape:cx="338.79307"
     inkscape:cy="296.27352"
     inkscape:window-x="0"
     inkscape:window-y="23"
     inkscape:window-maximized="1"
     inkscape:current-layer="svg3264" /><defs
     id="defs3266" /><path
     fill="#FFFFFF"
     stroke="#000000"
     stroke-width="3"
     stroke-miterlimit="10"
     d="M242.055,165.672c0,0,2.625,1.059,10.595,3.213  c16.613,9.924,32.894-0.557,39.36-5.463c6.913-6.244,8.697-13.158,11.15-15.388c4.962-3.346,7.184-6.564,7.184-6.564  s12.219,2.104,18.239,4.334c81.398,47.278,44.698,83.416,34.344,98.569c-2.899,1.115-15.834-2.007-20.517-6.244  c-5.575-1.561,46.831-51.403-13.827-55.752c-4.683,5.13,6.356,40.253,6.356,40.253c-6.356,3.903,5.129,10.575,0.558,20.629  c-2.257,4.961-8.252,14.495,4.571,27.541c-8.384,18.244-38.018,24.002-40.253,24.42c-47.055,4.46-69.133-23.416-69.579-25.869  c-1.561-25.2,27.653-63.111,20.887-84.635c-6.833-5.952-36.942-3.23-38.727,2.567c-5.872-4.36-9.813,2.23-15.165,3.568  c-11.373,1.115-16.65,4.46-16.65,4.46c-1.955-4.595,4.02-12.01,12.922-16.354C205.855,174.2,242.055,165.672,242.055,165.672z"
     id="path3271" /><path
     fill="#FFFFFF"
     stroke="#000000"
     stroke-width="3"
     stroke-miterlimit="10"
     d="M269.709,186.168c0,0-2.898,1.339-7.582,4.237  c-3.791,7.583-2.899,53.522,0.669,71.809c3.122,3.346,32.113-8.697,46.608,8.921c0.169,0.146,10.928-12.043,12.266-16.503  C321.224,251.732,272.831,216.274,269.709,186.168z"
     id="path3273" /><ellipse
     fill="#FFFFFF"
     stroke="#000000"
     stroke-width="3"
     stroke-miterlimit="10"
     cx="269.709"
     cy="209.139"
     rx="3.345"
     ry="4.46"
     id="ellipse3275" /><ellipse
     transform="matrix(0.9508 -0.3097 0.3097 0.9508 -57.5848 95.4921)"
     fill="#FFFFFF"
     stroke="#000000"
     stroke-width="3"
     stroke-miterlimit="10"
     cx="271.94"
     cy="229.098"
     rx="4.014"
     ry="5.463"
     id="ellipse3277" /><ellipse
     transform="matrix(0.8669 -0.4985 0.4985 0.8669 -85.6475 172.8224)"
     fill="#FFFFFF"
     stroke="#000000"
     stroke-width="3"
     stroke-miterlimit="10"
     cx="280.791"
     cy="246.789"
     rx="4.571"
     ry="6.21"
     id="ellipse3279" /><ellipse
     transform="matrix(0.8264 0.5631 -0.5631 0.8264 193.6722 -126.5287)"
     fill="#FFFFFF"
     stroke="#000000"
     stroke-width="3"
     stroke-miterlimit="10"
     cx="302.045"
     cy="250.841"
     rx="5.798"
     ry="5.352"
     id="ellipse3281" /><path
     fill="#FFFFFF"
     stroke="#000000"
     stroke-width="3"
     stroke-miterlimit="10"
     d="M307.249,359.743  c-3.196,8.623-17.692,14.867-19.03,20.22c-5.798,12.265,30.775,24.159,49.954,4.163c19.179-19.997,8.024-37.165,8.024-37.165  C336.608,365.693,308.959,359.743,307.249,359.743z"
     id="path3283" /><path
     fill="#FFFFFF"
     stroke="#000000"
     stroke-width="3"
     stroke-miterlimit="10"
     d="M288.219,379.963  c-5.24,19.848,13.977,23.342,13.977,23.342s30.96,8.855,47.351-22.919c6.988-19.602-3.349-33.425-3.349-33.425  c5.208,9.14,4.464,24.416-7.685,36.756C324.792,400.925,284.017,396.415,288.219,379.963z"
     id="path3285" /><path
     fill="#FFFFFF"
     stroke="#000000"
     stroke-width="3"
     stroke-miterlimit="10"
     d="M298.552,378.401  c-8.176-2.973-0.669-7.358,5.277-8.103c5.948-0.744,18.733-0.445,24.235,2.23c8.176,4.831,0.371,11.373-6.097,8.697  C315.501,378.551,301.451,379.442,298.552,378.401z"
     id="path3287" /><path
     fill="#FFFFFF"
     stroke="#000000"
     stroke-width="3"
     stroke-miterlimit="10"
     d="M306.87,369.274  c-6.654-2.045-0.833-5.853,3.889-6.688c4.723-0.835,14.951-1.113,19.455,0.804c6.729,3.53,0.757,9.072-4.52,7.196  C320.417,368.709,309.227,369.99,306.87,369.274z"
     id="path3289" /><path
     fill="#FFFFFF"
     stroke="#000000"
     stroke-width="3"
     stroke-miterlimit="10"
     d="M175.525,100.162  c-0.595,2.675-4.163-3.866-4.757-3.866c4.32,20.618,22.885,56.66,81.881,72.589c16.613,9.924,32.894-0.557,39.36-5.463  c6.913-6.244,8.697-13.158,11.15-15.388c10.705-7.359,12.935-15.388,19.402-39.695c0,0,35.235-0.893,8.028-42.148  c0,0-4.461-2.899-7.137,1.561c3.122,5.798,2.777,11.719,1.723,13.888c-1.054,2.169-4.728,1.342-5.566,2.87  c-0.84,1.529-0.17,6.658-1.731,7.55c-1.561,0.893-2.676-7.582-3.568-3.791c-0.892,3.791-1.338-7.805-2.453-16.057  c-8.028,0-27.43-26.092-28.991-25.423c-1.561,0.669,8.698,15.388,7.137,16.057c-1.561,0.669-23.416-15.388-28.099-12.042  c-0.224,1.114,5.352,4.683,4.46,8.474c0,0-3.122-1.561-4.349-0.78s5.464,4.572,5.909,6.579c0.446,2.007-30.105-11.374-31.443-20.071  c-2.453,0.224-4.684,10.259-5.91,11.039s-3.011-5.687-3.011-5.687c-4.46-2.453-18.286,3.345-19.625,2.676  c-1.338-0.669,1.562-4.683,8.475-9.366c-0.446-1.115-22.078,11.819-24.977,16.057c-3.568,2.453,1.338,15.388,0.892,16.503  s-3.791-0.893-5.352-3.568c-2.23,0.743-0.446,8.475-0.446,8.475s-3.122-0.446-4.015-8.921c0,0-1.784,7.359-3.122,8.028  s0.893-11.597-1.338-8.92C171.958,85.295,176.121,97.487,175.525,100.162z"
     id="path3291" /><path
     fill="#FFFFFF"
     stroke="#000000"
     stroke-width="3"
     stroke-miterlimit="10"
     d="M199.907,216.125  c1.004-1.635,16.169,10.631,20.092,4.926c4.855-10.766-13.178-18.305-12.063-20.684c5.464-3.271,23.598,20.075,29.284,12.492  c3.791-6.802-0.069-11.638-12.446-16.879c-2.819-1.457-11.987-8.354-12.452-8.697c-5.871-4.36-9.774,2.23-15.126,3.568  c-11.374,1.115-16.633,4.46-16.633,4.46c-1.828,0.836-4.517,28.769,24.809,31.333C217.637,221.181,198.904,217.761,199.907,216.125z  "
     id="path3293" /><path
     fill="#FFFFFF"
     stroke="#000000"
     stroke-width="3"
     stroke-miterlimit="10"
     d="M175.524,100.162  c-0.594,2.675-4.162-3.866-4.756-3.866c-2.028-2.782-5.204-10.704-1.413-18.955c-0.512-1.897-4.237,4.46-4.906,2.229  c-0.669-2.229-3.902,3.457-4.571,2.342s8.69-10.042,7.857-10.652c-0.833-0.609-7.3,3.404-7.523,1.397  c1.338-7.582,23.193-18.51,21.855-20.517c-1.339-2.007-7.359,5.129-8.921,3.791c-1.115-8.697,9.188-10.719,12.935-13.157  c2.307-1.501,1.338-10.259,9.01-15.254c5.263-1.695,18.417,3.529,21.988,1.204c4.354-2.834,18.732-16.726,21.074-14.384  c-3.233,3.902-9.151,11.16-5.909,9.031c6.021-1.114,36.902-19.391,48.615-13.38c23.862,12.935-7.136,0.445-10.481,7.359  c0,4.906,37.912-4.461,45.94-1.339c9.366,2.677-13.425,0.181-7.403,8.072c0.913,2.069,13.644-0.06,14.715,2.409  c-5.528,0-19.217,2.301-18.017,5.13c0.926,2.18,22.078,1.338,27.207,9.366c0.779,1.877-11.891-0.056-11.15,1.784  c0.951,2.36,26.092,8.474,28.769,16.279c-0.893,2.007-23.834-7.414-24.531-4.237c-0.446,1.784,16.503,5.129,17.617,14.496  c-1.766,0.904-5.687-3.84-8.027-4.684c-1.466-0.528,8.251,9.813,0.627,10.481c-0.284,0.044-3.678-6.105-5.533-8.92  c0,0-4.461-2.899-7.137,1.561c3.122,5.798,2.777,11.719,1.723,13.888c-1.054,2.169-4.728,1.342-5.566,2.87  c-0.84,1.529-0.17,6.658-1.731,7.55c-1.561,0.893-2.676-7.582-3.568-3.791c-0.892,3.791-1.338-7.805-2.453-16.057  c-8.028,0-27.43-26.092-28.991-25.423c-1.561,0.669,8.698,15.388,7.137,16.057c-1.561,0.669-23.416-15.388-28.099-12.042  c-0.224,1.114,5.352,4.683,4.46,8.474c0,0-3.122-1.561-4.349-0.78s5.464,4.572,5.909,6.579c0.446,2.007-30.105-11.374-31.443-20.071  c-2.453,0.224-4.684,10.259-5.91,11.039s-3.011-5.687-3.011-5.687c-4.46-2.453-18.286,3.345-19.625,2.676  c-1.338-0.669,1.562-4.683,8.475-9.366c-0.446-1.115-22.078,11.819-24.977,16.057c-3.568,2.453,1.338,15.388,0.892,16.503  s-3.791-0.893-5.352-3.568c-2.23,0.743-0.446,8.475-0.446,8.475s-3.122-0.446-4.015-8.921c0,0-1.784,7.359-3.122,8.028  s0.893-11.597-1.338-8.92C171.958,85.295,176.121,97.487,175.524,100.162z"
     id="path3295" /><path
     fill="#FFFFFF"
     stroke="#000000"
     stroke-width="3"
     stroke-miterlimit="10"
     d="M217.748,83.808  c-5.798-0.446-7.582,7.137-6.467,10.481s4.237,4.014,7.359,4.014C222.654,97.857,222.654,86.038,217.748,83.808z"
     id="path3297" /><path
     fill="#FFFFFF"
     stroke="#000000"
     stroke-width="3"
     stroke-miterlimit="10"
     d="M256.998,69.089  c-20.74,4.237-14.496,29.884-13.158,32.113c6.021,8.921,15.612,3.959,33.452,1.115C300.484,98.526,282.866,64.629,256.998,69.089z"
     id="path3299" /><path
     fill="#FFFFFF"
     stroke="#000000"
     stroke-width="3"
     stroke-miterlimit="10"
     d="M226,123.28  c-1.115,26.314,22.523,6.244,19.848,2.453"
     id="path3301" /><path
     fill="#FFFFFF"
     stroke="#000000"
     stroke-width="3"
     stroke-miterlimit="10"
     d="M220.647,148.257  c19.401,2.007,53.299-19.625,55.752-18.51s-11.373,28.322-20.294,28.545c-9.589,1.115-8.028,0.669-14.718,0  C235.589,158.069,221.316,150.487,220.647,148.257z"
     id="path3303" /><path
     fill="#FFFFFF"
     stroke="#000000"
     stroke-width="3"
     stroke-miterlimit="10"
     d="M339.957,270.744  c-14.719-14.624-4.533-25.774-4.517-27.514c4.479-10.75-6.857-16.251-0.529-20.614c6.311-4.334,11.704,6.461,11.704,6.461  s-5.742,7.484-4.212,9.049c1.531,1.564,10.723,7.002,20.52,6.246c6.582,7.026-3.902,26.761-3.231,27.319  s12.379-12.153,16.393-11.484c4.015,0.669,5.018,11.039-0.613,15.666c-3.902,2.677-13.659,1.951-19.457,2.844  c-2.673-0.486-1.317,0.304-6.468-3.233C347.65,273.364,344.528,273.477,339.957,270.744z"
     id="path3305" /><path
     fill="#FFFFFF"
     stroke="#000000"
     stroke-width="3"
     stroke-miterlimit="10"
     d="M298.529,295.334  c4.61,12.339,3.962,57.124,4.854,59.651c0.596,4.46,3.865,4.758,3.865,4.758s28.991,6.244,38.948-12.782  c0,0-5.496-10.708-6.24-15.837c-0.742-5.13-0.224-10.928-0.224-10.928s7.51-10.704-0.892-34.566  c-1.709-2.899-2.155-6.467-2.185-9.331C323.381,291.502,298.529,295.334,298.529,295.334z"
     id="path3307" /><path
     fill="#FFFFFF"
     stroke="#000000"
     stroke-width="3"
     stroke-miterlimit="10"
     d="M323.306,339.821  c2.975,0.297,12.341-3.866,13.232-6.394c0.893-2.527,4.757,8.92,3.419,11.597c-1.338,2.676-14.421,8.028-15.461,6.839  C323.454,350.675,323.306,339.821,323.306,339.821z"
     id="path3309" /><path
     fill="#FFFFFF"
     stroke="#000000"
     stroke-width="3"
     stroke-miterlimit="10"
     d="M321.856,296.52  c10.074,3.606,14.088-10.146,16.985-10.89c8.401,22.599,0.892,34.566,0.892,34.566C325.687,328.373,321.856,296.52,321.856,296.52z"
     id="path3311" /><path
     fill="#FFFFFF"
     stroke="#000000"
     stroke-width="3"
     stroke-miterlimit="10"
     d="M236.901,277.161  c-6.553,8.692-0.644,60.43,12.291,68.904c0,0,16.229,12.049,26.569,0.896c0,0,3.313-1.342-1.146-8.701  c-4.906-6.021-13.938-28.21-5.873-44.955C249.527,289.087,236.901,277.161,236.901,277.161z"
     id="path3313" /><path
     fill="#FFFFFF"
     stroke="#000000"
     stroke-width="3"
     stroke-miterlimit="10"
     d="M220.872,366.062  c0.742-5.946,11.039-7.099,14.27-9.884c5.287-4.296,10.311-8.505,14.051-10.112c1.636,0.52,16.229,12.049,26.569,0.896  c0,0-0.327,6.908-3.004,11.221c-8.103,12.266-22.448,21.261-36.35,20.369C226.743,378.252,220.797,371.043,220.872,366.062z"
     id="path3315" /><path
     fill="#FFFFFF"
     stroke="#000000"
     stroke-width="3"
     stroke-miterlimit="10"
     d="M220.872,366.062  c0-2.453-6.021,3.493-0.148,14.347c6.616,8.252,27.727,5.353,33.971,3.196c13.308-4.906,21.707-20.516,22.822-24.159  c1.114-3.643,0.147-13.975-1.755-12.484c0,0-0.327,6.908-3.004,11.221c-8.103,12.266-22.448,21.261-36.35,20.369  C226.743,378.252,220.797,371.043,220.872,366.062z"
     id="path3317" /><path
     fill="#FFFFFF"
     stroke="#000000"
     stroke-width="3"
     stroke-miterlimit="10"
     d="M231.798,361.603  c-2.193-3.075,3.387-4.391,4.944-4.132s6.96,0.804,11.279,4.382c4.319,3.579-0.552,9.242-5.511,6.745  C237.551,366.103,232.953,363.483,231.798,361.603z"
     id="path3319" /><path
     fill="#FFFFFF"
     stroke="#000000"
     stroke-width="3"
     stroke-miterlimit="10"
     d="M240.6,355.238  c-2.453-2.872,2.991-4.669,4.566-4.547c1.573,0.121,7.004,0.192,11.617,3.38c4.615,3.188,0.257,9.255-4.9,7.2  C246.726,359.219,241.915,357.011,240.6,355.238z"
     id="path3321" /><path
     fill="#FFFFFF"
     stroke="#000000"
     stroke-width="3"
     stroke-miterlimit="10"
     d="M263.465,83.585  c-8.475-1.115-7.917,12.377-7.917,12.377s1.004,4.125,3.903,4.571c2.898,0.446,8.028-5.129,8.697-8.697  S269.04,85.592,263.465,83.585z"
     id="path3323" /><path
     fill="#FFFFFF"
     stroke="#000000"
     stroke-width="3"
     stroke-miterlimit="10"
     d="M236.509,314.774c0,0,3.095,3.08,12.61,3.191  c0,0,6.065,14.901,3.568,16.55c-2.498,1.647-11.266-0.264-11.572-1.814C239.38,331.235,236.509,314.774,236.509,314.774z"
     id="path3325" /><path
     fill="#FFFFFF"
     stroke="#000000"
     stroke-width="3"
     stroke-miterlimit="10"
     d="M364.878,254.305  c-0.836,7.798-5.857,16.828-5.187,17.387s9.506-9.027,13.199-10.487C377.757,258.534,370.509,245.266,364.878,254.305z"
     id="path3327" /></svg>
