<?xml version="1.0" encoding="utf-8"?>
<!-- Generator: Adobe Illustrator 15.1.0, SVG Export Plug-In  -->
<!DOCTYPE svg PUBLIC "-//W3C//DTD SVG 1.1//EN" "http://www.w3.org/Graphics/SVG/1.1/DTD/svg11.dtd" [
	<!ENTITY ns_flows "http://ns.adobe.com/Flows/1.0/">
]>
<svg version="1.1"
	 xmlns="http://www.w3.org/2000/svg" xmlns:xlink="http://www.w3.org/1999/xlink" xmlns:a="http://ns.adobe.com/AdobeSVGViewerExtensions/3.0/"
	 x="0px" y="0px" width="384px" height="483px" viewBox="-25.935 -31.039 384 483" enable-background="new -25.935 -31.039 384 483"
	 xml:space="preserve">
<defs>
</defs>

<circle fill="white" stroke="#000000" stroke-width="3" cx="79.065" cy="90.461" r="44.5"/>
<ellipse fill="white" stroke="#000000" stroke-width="3" cx="147.565" cy="107.461" rx="26" ry="27.5"/>
<path fill="white" stroke="#000000" stroke-width="3" d="M157.565,191.461c0,6.627-5.373,12-12,12h-72c-6.627,0-12-5.373-12-12
	v-44c0-6.627,5.373-12,12-12h72c6.627,0,12,5.373,12,12V191.461z"/>
<path fill="white" stroke="#000000" stroke-width="3" d="M37.565,210.461c0,2.762-2.238,5-5,5h-17c-2.761,0-5-2.238-5-5v-88
	c0-2.762,2.239-5,5-5h17c2.762,0,5,2.238,5,5V210.461z"/>
<polygon fill="white" stroke="#000000" stroke-width="3" points="61.565,149.711 37.565,122.961 37.565,209.961
	61.565,190.461 "/>
<path fill="white" stroke="#000000" stroke-width="3" d="M157.672,171.401c0,0,6.519,1.644,7.894,4.227
	c0,0,0.375,2.833,0,7.333s-8,8.5-8,8.5L157.672,171.401z"/>
<path fill="white" stroke="#000000" stroke-width="3" d="M165.815,185.211l-0.208-9.583c0,0,3.499,1,14.979-0.667
	s16.49-32.333,16.49-32.333l3.994-4.667c0,0,25.182,4.186,34.185-4.814c2.664,0.333,8.045,15.717,9.896,17.814
	s22.915,25.667,24.415,32s0,24,0,24l-10.167-3.5c0,0,6.334-13.833,6.334-17.833s-16-22.001-17.667-21.334s5.333,42.667,5.333,42.667
	s2.218,41.981-3,45.667s-19.383,14.58-29,15c-6.333-7-14.332-100-16.666-101.167s-14,16.167-19,18.5
	S165.815,185.211,165.815,185.211z"/>
<path fill="white" stroke="#000000" stroke-width="3" d="M201.231,131.294c0,0-6.333,7.833-10.666,6s0-11.333,0-11.333
	l-9.534-16.649c0,0-4.732-9.945,3.484-16.731c0,0,1.883-11.286,13.883-20.619c45-5.667,53.379,38.023,53.667,40.667
	c-1.333,7.333-9.141,11.519-16.811,20.519s-34.185,4.814-34.185,4.814l-3.976-2.639L201.231,131.294z"/>
<path fill="white" stroke="#000000" stroke-width="3" d="M272.315,127.461c-3.625-13.125-34.91-43.585-34.91-43.585
	s11.285,10.96,14.66,28.752c-1.188,4.583-2.279,5.282-7.188,10.896c2.563,6.063,8.188,17.688,8.188,17.688l-2.375-16.125l9,16
	l-4.875-19.375l12.875,13.25l-6.75-17.25L272.315,127.461z"/>
<path fill="white" stroke="#000000" stroke-width="3" d="M208.315,121.586l16.625-7.5L208.315,121.586z"/>
<line fill="white" stroke="#000000" stroke-width="3" x1="227.065" y1="121.461" x2="209.065" y2="121.461"/>
<path fill="white" stroke="#000000" stroke-width="3" d="M191.595,78.589c0,0-13.695-17.461-11.195-33.628
	s20.916-13.5,27.041-7.5c6.875,4.458,47.125,65.75,50.463,68.33c-3.838-2.58-25.837-40.663-59.505-33.83
	C194.732,74.961,191.595,78.589,191.595,78.589z"/>
<path fill="white" stroke="#000000" stroke-width="3" d="M222.992,56.799c0,0,7.323-10.088,17.573-6.588
	c4.324,1.477,9.294,4.088,13.772,7.627c6.138,4.851,11.354,11.443,12.728,19.248c2.375,13.5-9.162,28.705-9.162,28.705
	L222.992,56.799z"/>
<path fill="white" stroke="#000000" stroke-width="3" d="M256.44,52.711c2.5-2.75,8.75,0.875,7.125,5.375
	s-4.357,4.226-4.357,4.226l-5.295-4.8C253.913,57.512,253.94,55.461,256.44,52.711z"/>
<ellipse fill="white" stroke="#000000" stroke-width="3" cx="79.19" cy="92.211" rx="27.125" ry="26.75"/>
<ellipse fill="white" stroke="#000000" stroke-width="3" cx="147.815" cy="107.336" rx="12.75" ry="13.625"/>
<path fill="white" stroke="#000000" stroke-width="3" d="M222.819,267.489c0,0,0.455,82.222-4.899,85.972
	c0,0,0.624,4.502,4.899,5c7.746-1,5.348-92.407,5.348-92.407L222.819,267.489z"/>
<path fill="white" stroke="#000000" stroke-width="3" d="M243.57,257.469c0,0,1.245,83.492-3.505,87.992c0,0,0.5,4.5,7.25,1.25
	c4-2.25,1.926-93.256,1.926-93.256L243.57,257.469z"/>
<path fill="white" stroke="#000000" stroke-width="3" d="M260.519,203.847c0,0-4.939,0.876-7.071,4.12
	c0,0,0.3,8.25,0.337,10.245s2.438,3.124,6.734,5.749s6.297-2.5,4.547-4.75s-5.809-3.75-5.809-3.75s0.934-1.488,2.809-1.557l11,3.807
	c1.5-3.125-5.219-11.342-5.219-11.342L260.519,203.847z"/>
<path fill="white" stroke="#000000" stroke-width="3" d="M277.065,278.836l-27.751-23.875l-0.073-1.506
	c0,0,2.324-0.932,2.747-3.729c1.827-4.015,1.983-30.653,1.983-30.653s5.512,4.385,6.547,4.889c1.047,1.25,7.422,0.625,4.547-4.75
	c0.125-1-5.809-3.75-5.809-3.75c0.059-0.875,2.809-1.557,2.809-1.557l43.25,15.307c9.688,3.438,3.25,13.25,3.25,13.25l-16.875,31.5
	C291.69,273.961,285.94,284.023,277.065,278.836z"/>
<path fill="white" stroke="#000000" stroke-width="3" d="M300.353,227.454l4.963,1.757c11,4.438,1.064,17.076,1.064,17.076
	l-5.002-3.326L300.353,227.454z"/>
<polygon fill="white" stroke="#000000" stroke-width="3" points="301.378,242.961 291.94,237.211 290.704,224.04
	300.353,227.454 "/>
<polygon fill="white" stroke="#000000" stroke-width="3" points="291.94,237.211 285.378,233.148 283.549,221.508
	290.704,224.04 "/>
<polygon fill="white" stroke="#000000" stroke-width="3" points="277.565,228.836 285.378,233.148 283.549,221.508
	275.739,218.744 "/>
<polygon fill="white" stroke="#000000" stroke-width="3" points="270.232,224.691 277.565,228.836 275.739,218.744
	268.232,216.112 "/>
<path fill="white" stroke="#000000" stroke-width="3" d="M265.606,222.044l4.626,2.647l-2-8.579l-6.167-2.208
	c0,0-1.805-0.006-2.809,1.557C267.503,218.461,265.606,222.044,265.606,222.044z"/>
<polygon fill="white" stroke="#000000" stroke-width="3" points="306.38,246.287 300.353,257.792 290.325,251.326
	301.378,242.961 "/>
<polygon fill="white" stroke="#000000" stroke-width="3" points="290.325,251.326 281.128,245.336 291.94,237.211
	301.378,242.961 "/>
<polygon fill="white" stroke="#000000" stroke-width="3" points="273.086,239.744 285.378,233.148 291.94,237.211
	281.128,245.336 "/>
<polygon fill="white" stroke="#000000" stroke-width="3" points="265.69,234.648 277.565,228.836 285.378,233.148
	273.086,239.744 "/>
<polygon fill="white" stroke="#000000" stroke-width="3" points="258.767,229.85 270.232,224.691 277.565,228.836
	265.69,234.648 "/>
<path fill="white" stroke="#000000" stroke-width="3" d="M253.876,226.336l4.891,3.514l11.466-5.158l-4.626-2.647
	c-2.166,4.229-5.088,1.917-5.088,1.917s-4.904-3.066-6.547-4.889L253.876,226.336z"/>
<path fill="white" stroke="#000000" stroke-width="3" d="M217.92,353.461c0,0-6.855,2.083-6.104,5s22.249,22.749,24.25,24.25
	s8.751,2.417,7-4.75c-1.666-5.166-19.277-14.084-19.847-15.5s0.108-1.496-0.399-4C218.732,358.295,217.92,353.461,217.92,353.461z"
	/>
<path fill="white" stroke="#000000" stroke-width="3" d="M240.065,345.461c0,0-4.166,1.75-3.416,3.667
	s18.332,15.235,22.75,18.084c4,1.916,8.917-1.25,7-6.25c-1.667-3.75-18.5-8.418-19.75-9.334s-1-2.25-0.871-4.271
	C240.732,349.378,240.065,345.461,240.065,345.461z"/>
<path fill="white" stroke="#000000" stroke-width="3" d="M98.565,203.461v6.5c0,0,0.282,2.5,4.438,2.5s18.813,0,23.187,0
	c4.375,0,4.375-2.999,4.375-2.999v-6.001H98.565z"/>
<polygon fill="white" stroke="#000000" stroke-width="3" points="106.565,212.461 79.94,299.461 72.815,395.461
	75.065,395.461 77.065,403.711 79.315,395.711 82.565,394.711 86.565,300.673 111.065,212.461 "/>
<polygon fill="white" stroke="#000000" stroke-width="3" points="124.315,212.461 162.398,299.461 174.398,395.461
	171.065,395.461 170.065,403.523 167.398,395.43 163.398,394.383 155.065,300.509 119.815,212.461 "/>
<polygon fill="white" stroke="#000000" stroke-width="3" points="114.649,212.543 124.356,294.253 126.065,370.461
	129.565,370.461 131.065,378.962 132.565,370.962 135.065,370.295 132.565,295.252 118.398,212.461 "/>
<ellipse fill="white" stroke="#000000" stroke-width="3" cx="190.399" cy="103.211" rx="10.667" ry="12.751"/>
<ellipse transform="matrix(0.9629 -0.2698 0.2698 0.9629 -21.6006 53.7775)" fill="white" stroke="#000000" stroke-width="3" cx="184.815" cy="105.461" rx="3.5" ry="5"/>
</svg>
