<?xml version="1.0" encoding="utf-8"?>
<!-- Generator: Adobe Illustrator 15.1.0, SVG Export Plug-In  -->
<!DOCTYPE svg PUBLIC "-//W3C//DTD SVG 1.1//EN" "http://www.w3.org/Graphics/SVG/1.1/DTD/svg11.dtd" [
	<!ENTITY ns_flows "http://ns.adobe.com/Flows/1.0/">
]>
<svg version="1.1"
	 xmlns="http://www.w3.org/2000/svg" xmlns:xlink="http://www.w3.org/1999/xlink" xmlns:a="http://ns.adobe.com/AdobeSVGViewerExtensions/3.0/"
	 x="0px" y="0px" width="495px" height="483px" viewBox="-169.838 -17.666 495 483"
	 enable-background="new -169.838 -17.666 495 483" xml:space="preserve">
<defs>
</defs>
<path fill-rule="evenodd" clip-rule="evenodd" fill="white" stroke="#000000" stroke-width="3" d="M70.93,191.034
	c-6.195,1.97-30.559,35.345-32.67,39.569c-2.114,4.225-5.914,23.378-4.859,30.137c1.057,6.759,5.565,30.421,7.816,32.671
	c2.251,2.251,13.519,3.38,19.406-7.069c4.562-5.631-11.52-15.463-11.52-28.982c1.123-9.575,15.209-26.473,17.592-26.902
	c12.827,19.579-11.399,72.528-11.479,84.638c0.647,7.604,13.038,30.137,48.522,27.882c8.451,0.564,19.155,0,43.374-14.364
	c5.635-4.225,10.14-31.824-2.814-75.198c-4.505-28.728-22.532-50.696-27.883-51.541C104.866,203.286,77.125,189.064,70.93,191.034z"
	/>
<path fill-rule="evenodd" clip-rule="evenodd" fill="white" stroke="#000000" stroke-width="3" d="M64.495,185.501
	c4.783,2.337,36.167,16.083,51.187,16.207c12.954-1.125,30.867-20.955,38.19-38.418c3.38-18.024,0-12.39,1.128-25.345
	c0-34.926-26.472-50.134-28.727-50.134c0,2.22,0,5.63-5.07,11.829c-0.564-8.449-10.139-14.08-10.139-14.08s6.76,16.333-6.759,18.024
	c3.94-11.829-1.13-18.024-1.13-18.024s-1.97,22.813-13.799,20.559c9.285-13.952,3.1-22.813,3.1-22.813s-15.814,25.527-45.063,21.967
	c-9.752,11.727-10.979,18.709-11.829,29.292C36.146,157.66,59.712,183.164,64.495,185.501z"/>
<path fill-rule="evenodd" clip-rule="evenodd" fill="white" stroke="#000000" stroke-width="3" d="M27.136,225.253
	c11.043-1.818-19.477-38.952,2.792-120.176c0.626,1.185,17.818,11.923,11.289-12.197c41.12-8.449,20.278-30.417,20.278-30.417
	s5.771-4.083,18.166-4.225c34.642,3.802,53.933,23.377,53.933,23.377s36.051,26.474,27.037,47.88
	c0-23.658-34.357-41.685-34.357-41.685s2.255,1.689-5.07,11.829c-1.083-9.556-10.213-14.317-10.213-14.317
	s7.005,16.011-6.685,18.262c3.898-9-1.13-18.024-1.13-18.024s-2.389,22.648-13.799,20.559c9.294-14.364,3.1-22.813,3.1-22.813
	s-16.054,26.757-45.063,21.967c-10.423,7.885-12.535,31.965-12.957,31.543c-5.914,78.578,10.702,79.845,1.128,101.391
	c-24.786,24.925-26.477,3.944-26.477,3.944s12.533,9.013,12.391-3.38c-31.824-0.564-18.021-16.898-18.021-16.898
	s1.548,13.238,18.588,10.139c-15.492-11.971-6.76-19.152-6.76-19.152S19.391,230.466,27.136,225.253z"/>
<path fill-rule="evenodd" clip-rule="evenodd" fill="white" stroke="#000000" stroke-width="3" d="M41.008,92.564
	c-2.06,3.839-6.287,5.578-9.437,3.885c-3.155-1.693-3.992-8.531-1.623-13.146c0.342-1.451,5.381-3.135,9.083-0.75
	C41.337,85.302,43.068,88.729,41.008,92.564z"/>
<path fill-rule="evenodd" clip-rule="evenodd" fill="white" stroke="#000000" stroke-width="3" d="M29.948,83.303
	C18.688,69.784-1.03,90.626,4.6,101.892c4.229,8.449,25.646,8.942,24.976,2.708c-2.662-7.016,2.704-7.894,2.704-7.894
	S25.663,94.834,29.948,83.303z"/>
<path fill-rule="evenodd" clip-rule="evenodd" fill="white" stroke="#000000" stroke-width="3" d="M24.528,79.426
	c-2.808-0.521-7.531-33.299,14.998-22.593c6.948,4.151,5.864,12.256,3.609,18.264c-2.599,3.737-3.74,7.397-4.104,7.456
	c-5.119-2.782-8.402-0.085-9.083,0.75C29.948,83.303,28.537,80.896,24.528,79.426z"/>
<path fill-rule="evenodd" clip-rule="evenodd" fill="white" stroke="#000000" stroke-width="3" d="M39.031,82.553
	c0,0,14.309-27.667,21.068-21.469c23,25.125-20.013,32.358-19.092,31.48C44.596,86.683,39.031,82.553,39.031,82.553z"/>
<path fill-rule="evenodd" clip-rule="evenodd" fill="white" stroke="#000000" stroke-width="3" d="M114.443,68.094
	c0,0,10.495-22.323,7.68-27.954c-0.671-0.604,5.839,4.864,15.415,5.425c2.815,11.268-3.042,32.853-6.604,33.637
	C126.579,74.917,114.443,68.094,114.443,68.094z"/>
<path fill-rule="evenodd" clip-rule="evenodd" fill="white" stroke="#000000" stroke-width="3" d="M98.671,33.736
	c2.254-15.771,18.589-5.915,21.968-6.759c1.976-1.974-7.604-25.91,1.409-26.477c7.604,0,0.842,20.843,4.786,21.968
	c3.945,1.128,5.634-24.219,11.55-21.123c5.914,3.102-5.075,22.251-1.411,23.941c3.665,1.69,5.916-21.687,12.395-16.337
	c6.478,5.353-5.915,22.813-5.915,22.813s-2.254,11.268-5.914,13.803c0,0.284-12.677-1.971-17.463-7.321
	C115.289,32.891,98.391,38.806,98.671,33.736z"/>
<path fill-rule="evenodd" clip-rule="evenodd" fill="white" stroke="#000000" stroke-width="3" d="M69.1,110.908
	c-22.814,13.797-4.229,40.557-1.833,42.104s11.41,6.057,18.451,6.057c7.038,0,11.046-0.759,16.052-6.198
	C114.725,126.962,90.506,104.71,69.1,110.908z"/>
<path fill-rule="evenodd" clip-rule="evenodd" fill="white" stroke="#000000" stroke-width="3" d="M121.203,139.913
	c1.411,3.664,9.014,6.199,15.209,5.354c6.195-0.845,12.395-5.914,9.858-12.113C130.779,98.234,115.01,136.256,121.203,139.913z"/>
<path fill-rule="evenodd" clip-rule="evenodd" fill="white" stroke="#000000" stroke-width="3" d="M103.149,149.62
	c-10.139,17.459,21.124,21.684,12.11-7.604"/>
<path fill-rule="evenodd" clip-rule="evenodd" fill="white" stroke="#000000" stroke-width="3" d="M73.042,167.235
	c1.69,0,35.769,17.182,57.737,12.957c2.533,0-1.69,10.417-19.15,11.83C91.067,194.833,71.354,167.235,73.042,167.235z"/>
<path fill-rule="evenodd" clip-rule="evenodd" fill="white" stroke="#000000" stroke-width="3" d="M135.771,280.085
	c-1.771,19.462-14.693,34.192-28.863,32.898c-14.168-1.287-24.217-18.109-22.449-37.569c1.772-19.466,14.694-34.196,28.867-32.906
	C127.49,243.8,137.542,260.618,135.771,280.085z"/>
<path fill-rule="evenodd" clip-rule="evenodd" fill="white" stroke="#000000" stroke-width="3" d="M44.87,294.803
	c-5.574,2.283-1.681,10.277-5.904,12.531c-3.663-0.28-13.239-8.291-14.364-1.812c2.251,10.419,13.799,8.45,22.248,9.575
	c3.813-0.763,9.572-9.312,10.982-12.13c1.057-2.114,3.633-11.267,4.491-14.884c0.286-1.206-1.212-2.626-1.212-2.626
	S54.954,296.709,44.87,294.803z"/>
<path fill-rule="evenodd" clip-rule="evenodd" fill="white" stroke="#000000" stroke-width="3" d="M56.401,319.629
	c-1.126,0.284-17.156,9.834-18.565,37.717c0,5.07,5.354,10.984,7.89,11.83c2.533,0.845,12.952,2.814,19.433,7.319
	c3.66,0.846,24.345-0.844,25.754-6.759c0-3.94-31.057-7.651-15.564-31.309C60.816,331.129,56.401,319.629,56.401,319.629z"/>
<path fill-rule="evenodd" clip-rule="evenodd" fill="white" stroke="#000000" stroke-width="3" d="M45.159,399.309
	c4.505,4.789,9.014-3.379,11.83-2.534c2.815,0.845-8.168,14.932-1.69,17.183c6.479,2.25,10.137-9.575,12.11-9.295
	c1.973,0.281-1.69,9.291,3.379,9.011c5.07-0.281,6.015-0.221,7.604-10.984c1.861-12.614,14.02-20.438,13.803-28.064
	c-0.284-1.689-1.45-3.123-2.715-2.8c-7.235,5.51-24.322,4.671-24.322,4.671S42.907,387.199,45.159,399.309z"/>
<path fill-rule="evenodd" clip-rule="evenodd" fill="white" stroke="#000000" stroke-width="3" d="M107.965,343.112
	c2.536,10.984,0.422,24.37-1.689,28.172c-2.112,3.802-14.786,8.449-14.786,8.027c-5.16,5.272-10.036,15.388-10.036,15.388
	s11.303,8.27,19.753,9.96c8.449-1.69,17.321-16.477,23.658-21.546c6.336-5.07,21.399-45.004,19.782-52.958
	C137.115,334.453,120.639,343.112,107.965,343.112z"/>
<path fill-rule="evenodd" clip-rule="evenodd" fill="white" stroke="#000000" stroke-width="3" d="M129.089,429.162
	c-2.536,5.069-13.519-2.112-13.519,1.267c0,3.38,9.643,5.016,5.492,9.294s-13.098-5.491-16.899-5.068
	c-3.803,0.422,14.506,7.186,3.944,11.548c-16.054,2.957-18.17-21.549-19.153-26.335c-0.982-4.785-9.717-20.278-9.717-20.278
	s1.606-4.745,2.112-4.785s11.396,8.03,19.856,9.855c0.284,0.284,3.802-0.845,3.802-0.845c7.182,8.871,11.829,10.139,16.477,18.588
	C122.329,425.782,131.625,424.093,129.089,429.162z"/>
<path fill-rule="evenodd" clip-rule="evenodd" fill="white" stroke="#000000" stroke-width="3" d="M128.594,279.854
	c-1.35,14.816-10.4,26.098-20.219,25.203c-9.815-0.891-16.681-13.625-15.334-28.437c1.35-14.816,10.4-26.097,20.219-25.202
	C123.075,252.309,129.94,265.041,128.594,279.854z"/>
<path fill-rule="evenodd" clip-rule="evenodd" fill="white" stroke="#000000" stroke-width="3" d="M91.42,135.418
	c1.043,4.066-1.043,8.119-4.658,9.046c-3.616,0.928-7.393-1.614-8.436-5.683c-1.046-4.07,1.038-8.119,4.654-9.047
	C86.598,128.803,90.373,131.352,91.42,135.418z"/>
<path fill-rule="evenodd" clip-rule="evenodd" fill="white" stroke="#000000" stroke-width="3" d="M136.524,130.972
	c0.835,2.915-0.369,5.819-2.687,6.479c-2.319,0.661-4.874-1.165-5.707-4.083c-0.831-2.915,0.369-5.818,2.689-6.479
	C133.139,126.229,135.693,128.055,136.524,130.972z"/>
<path fill-rule="evenodd" clip-rule="evenodd" fill="white" stroke="#000000" stroke-width="3" d="M32.279,96.706
	c-0.491,0.087-5.575,1.67-2.424,8.749c1.641,1.463,17.432,10.755,11.361-12.574C36.704,98.417,32.883,96.884,32.279,96.706z"/>
</svg>
