<?xml version="1.0" encoding="utf-8"?>
<!-- Generator: Adobe Illustrator 15.1.0, SVG Export Plug-In  -->
<!DOCTYPE svg PUBLIC "-//W3C//DTD SVG 1.1//EN" "http://www.w3.org/Graphics/SVG/1.1/DTD/svg11.dtd" [
	<!ENTITY ns_flows "http://ns.adobe.com/Flows/1.0/">
]>
<svg version="1.1"
	 xmlns="http://www.w3.org/2000/svg" xmlns:xlink="http://www.w3.org/1999/xlink" xmlns:a="http://ns.adobe.com/AdobeSVGViewerExtensions/3.0/"
	 x="0px" y="0px" width="298px" height="483px" viewBox="-7.995 -10.38 298 483" enable-background="new -7.995 -10.38 298 483"
	 xml:space="preserve">
<defs>
</defs>
<path fill="white" stroke="#000000" stroke-width="3" d="M182.328,404.953c-3.584,9.667-19.834,16.667-21.334,22.667
	c-6.5,13.75,34.5,27.084,56,4.667s8.996-41.663,8.996-41.663C215.24,411.624,184.244,404.953,182.328,404.953z"/>
<path fill="white" stroke="#000000" stroke-width="3" d="M160.994,427.62c-5.875,22.25,15.668,26.167,15.668,26.167
	s34.707,9.928,53.082-25.692c7.834-21.975-3.754-37.471-3.754-37.471c5.838,10.246,5.004,27.371-8.615,41.205
	C201.994,451.12,156.283,446.064,160.994,427.62z"/>
<path fill="white" stroke="#000000" stroke-width="3" d="M172.578,425.87c-9.166-3.333-0.75-8.249,5.916-9.083
	c6.668-0.834,21-0.5,27.168,2.5c9.166,5.416,0.416,12.75-6.834,9.75S175.828,427.037,172.578,425.87z"/>
<path fill="white" stroke="#000000" stroke-width="3" d="M181.902,415.639c-7.459-2.293-0.934-6.562,4.359-7.497
	c5.295-0.936,16.762-1.248,21.811,0.9c7.543,3.958,0.848,10.171-5.066,8.067C197.09,415.005,184.545,416.44,181.902,415.639z"/>
<path fill="white" stroke="#000000" stroke-width="3" d="M34.661,113.954c-0.667,2.999-4.667-4.334-5.333-4.334
	c4.844,23.113,25.654,63.518,91.791,81.375c18.625,11.125,36.875-0.625,44.125-6.125c7.75-7,9.75-14.75,12.5-17.25
	c12-8.25,14.5-17.25,21.75-44.5c0,0,39.5-1,9-47.25c0,0-5-3.25-8,1.75c3.5,6.5,3.113,13.137,1.932,15.568s-5.301,1.504-6.24,3.218
	c-0.941,1.714-0.191,7.464-1.941,8.464s-3-8.5-4-4.25s-1.5-8.75-2.75-18c-9,0-30.75-29.25-32.5-28.5s9.75,17.25,8,18
	s-26.25-17.25-31.5-13.5c-0.25,1.25,6,5.25,5,9.5c0,0-3.5-1.75-4.875-0.875s6.125,5.125,6.625,7.375s-33.75-12.75-35.25-22.5
	c-2.75,0.25-5.25,11.5-6.625,12.375s-3.375-6.375-3.375-6.375c-5-2.75-20.5,3.75-22,3s1.75-5.25,9.5-10.5
	c-0.5-1.25-24.75,13.25-28,18c-4,2.75,1.5,17.25,1,18.5s-4.25-1-6-4c-2.5,0.833-0.5,9.5-0.5,9.5s-3.5-0.5-4.5-10c0,0-2,8.25-3.5,9
	s1-13-1.5-10C30.661,97.287,35.328,110.955,34.661,113.954z"/>
<path fill="white" stroke="#000000" stroke-width="3" d="M109.242,187.393c0,0,2.943,1.188,11.877,3.603
	c18.625,11.125,36.875-0.625,44.125-6.125c7.75-7,9.75-14.75,12.5-17.25c5.563-3.75,8.053-7.358,8.053-7.358
	s13.697,2.358,20.447,4.858c91.25,53,50.107,93.512,38.5,110.5c-3.25,1.25-17.75-2.25-23-7c-6.25-1.75,52.5-57.625-15.5-62.5
	c-5.25,5.75,7.125,45.125,7.125,45.125c-7.125,4.375,5.75,11.854,0.625,23.125c-2.529,5.562-9.25,16.25,5.125,30.875
	c-9.398,20.452-42.619,26.907-45.125,27.375c-52.75,5-77.5-26.25-78-29c-1.75-28.25,31-70.75,23.414-94.878
	c-7.66-6.673-41.414-3.622-43.414,2.878c-6.582-4.889-11,2.5-17,4c-12.75,1.25-18.666,5-18.666,5
	c-2.191-5.151,4.506-13.464,14.486-18.333C68.662,196.953,109.242,187.393,109.242,187.393z"/>
<path fill="white" stroke="#000000" stroke-width="3" d="M61.994,243.953c1.125-1.833,18.125,11.917,22.523,5.521
	c5.443-12.068-14.773-20.521-13.523-23.188c6.125-3.667,26.453,22.505,32.828,14.005c4.25-7.625-0.078-13.047-13.953-18.922
	c-3.16-1.634-13.438-9.366-13.959-9.75c-6.582-4.889-10.957,2.5-16.957,4c-12.75,1.25-18.646,5-18.646,5
	c-2.05,0.937-5.063,32.25,27.812,35.125C81.869,249.62,60.869,245.786,61.994,243.953z"/>
<path fill="white" stroke="#000000" stroke-width="3" d="M34.66,113.954c-0.666,2.999-4.666-4.334-5.332-4.334
	c-2.273-3.119-5.834-12-1.584-21.25c-0.574-2.127-4.75,5-5.5,2.5s-4.375,3.875-5.125,2.625s9.742-11.258,8.808-11.941
	s-8.183,3.816-8.433,1.566c1.5-8.5,26-20.75,24.5-23s-8.25,5.75-10,4.25c-1.25-9.75,10.299-12.016,14.5-14.75
	c2.586-1.683,1.5-11.5,10.1-17.1c5.9-1.9,20.646,3.956,24.65,1.35c4.881-3.177,21-18.75,23.625-16.125
	c-3.625,4.375-10.26,12.512-6.625,10.125c6.75-1.25,41.369-21.738,54.5-15c26.75,14.5-8,0.5-11.75,8.25c0,5.5,42.5-5,51.5-1.5
	c10.5,3-15.049,0.202-8.299,9.049c1.023,2.319,15.295-0.066,16.496,2.701c-6.197,0-21.543,2.579-20.197,5.75
	c1.037,2.443,24.75,1.5,30.5,10.5c0.873,2.104-13.33-0.063-12.5,2c1.066,2.646,29.25,9.5,32.25,18.25
	c-1,2.25-26.719-8.312-27.5-4.75c-0.5,2,18.5,5.75,19.75,16.25c-1.98,1.014-6.375-4.304-9-5.25c-1.643-0.593,9.25,11,0.703,11.75
	c-0.318,0.05-4.123-6.845-6.203-10c0,0-5-3.25-8,1.75c3.5,6.5,3.113,13.137,1.932,15.568s-5.301,1.504-6.24,3.218
	c-0.941,1.714-0.191,7.464-1.941,8.464s-3-8.5-4-4.25s-1.5-8.75-2.75-18c-9,0-30.75-29.25-32.5-28.5s9.75,17.25,8,18
	s-26.25-17.25-31.5-13.5c-0.25,1.25,6,5.25,5,9.5c0,0-3.5-1.75-4.875-0.875s6.125,5.125,6.625,7.375s-33.75-12.75-35.25-22.5
	c-2.75,0.25-5.25,11.5-6.625,12.375s-3.375-6.375-3.375-6.375c-5-2.75-20.5,3.75-22,3s1.75-5.25,9.5-10.5
	c-0.5-1.25-24.75,13.25-28,18c-4,2.75,1.5,17.25,1,18.5s-4.25-1-6-4c-2.5,0.833-0.5,9.5-0.5,9.5s-3.5-0.5-4.5-10c0,0-2,8.25-3.5,9
	s1-13-1.5-10C30.661,97.287,35.328,110.955,34.66,113.954z"/>
<path fill="white" stroke="#000000" stroke-width="3" d="M81.994,95.62c-6.5-0.5-8.5,8-7.25,11.75s4.75,4.5,8.25,4.5
	C87.494,111.37,87.494,98.12,81.994,95.62z"/>
<path fill="white" stroke="#000000" stroke-width="3" d="M125.994,79.12c-23.25,4.75-16.25,33.5-14.75,36
	c6.75,10,17.502,4.438,37.5,1.25C174.744,112.12,154.994,74.12,125.994,79.12z"/>
<path fill="white" stroke="#000000" stroke-width="3" d="M91.244,139.87c-1.25,29.5,25.25,7,22.25,2.75"/>
<path fill="white" stroke="#000000" stroke-width="3" d="M85.244,167.87c21.75,2.25,59.75-22,62.5-20.75s-12.75,31.75-22.75,32
	c-10.75,1.25-9,0.75-16.5,0C101.994,178.87,85.994,170.37,85.244,167.87z"/>
<path fill="white" stroke="#000000" stroke-width="3" d="M140.244,210.37c0,0-3.25,1.5-8.5,4.75c-4.25,8.5-3.25,60,0.75,80.5
	c3.5,3.75,36-9.75,52.25,10c0.189,0.163,12.25-13.5,13.75-18.5C197.994,283.87,143.744,244.12,140.244,210.37z"/>
<ellipse fill="white" stroke="#000000" stroke-width="3" cx="140.244" cy="236.12" rx="3.75" ry="5"/>
<ellipse transform="matrix(0.9508 -0.3097 0.3097 0.9508 -73.0397 56.9194)" fill="white" stroke="#000000" stroke-width="3" cx="142.745" cy="258.495" rx="4.5" ry="6.125"/>
<ellipse transform="matrix(0.8669 -0.4985 0.4985 0.8669 -118.4279 113.1582)" fill="white" stroke="#000000" stroke-width="3" cx="152.667" cy="278.327" rx="5.125" ry="6.962"/>
<ellipse transform="matrix(0.8264 0.5631 -0.5631 0.8264 189.9383 -50.2739)" fill="white" stroke="#000000" stroke-width="3" cx="176.494" cy="282.87" rx="6.5" ry="6"/>
<path fill="white" stroke="#000000" stroke-width="3" d="M218.994,305.183c-16.5-16.395-5.082-28.895-5.063-30.844
	c5.021-12.052-7.688-18.218-0.594-23.109c7.074-4.858,13.121,7.243,13.121,7.243s-6.438,8.39-4.723,10.144
	c1.717,1.754,12.021,7.85,23.004,7.002c7.379,7.877-4.375,30-3.623,30.626s13.877-13.624,18.377-12.874s5.625,12.375-0.688,17.563
	c-4.375,3-15.313,2.188-21.813,3.188c-2.996-0.545-1.477,0.341-7.25-3.625C227.619,308.12,224.119,308.245,218.994,305.183z"/>
<path fill="white" stroke="#000000" stroke-width="3" d="M246.932,286.754c-0.938,8.741-6.566,18.864-5.814,19.49
	s10.656-10.12,14.797-11.756C261.369,291.495,253.244,276.62,246.932,286.754z"/>
<path fill="white" stroke="#000000" stroke-width="3" d="M172.553,332.748c5.168,13.833,4.441,64.039,5.441,66.872
	c0.668,5,4.334,5.333,4.334,5.333s32.5,7,43.662-14.329c0,0-6.162-12.004-6.996-17.754c-0.832-5.75-0.25-12.25-0.25-12.25
	s8.418-12-1-38.75c-1.916-3.25-2.416-7.25-2.449-10.461C200.412,328.453,172.553,332.748,172.553,332.748z"/>
<path fill="white" stroke="#000000" stroke-width="3" d="M200.328,382.62c3.334,0.333,13.834-4.334,14.834-7.167
	s5.332,10,3.832,13s-16.166,9-17.332,7.667C200.494,394.787,200.328,382.62,200.328,382.62z"/>
<path fill="white" stroke="#000000" stroke-width="3" d="M198.703,334.078c11.293,4.043,15.793-11.374,19.041-12.208
	c9.418,25.334,1,38.75,1,38.75C202.996,369.787,198.703,334.078,198.703,334.078z"/>
<path fill="white" stroke="#000000" stroke-width="3" d="M103.465,312.376c-7.346,9.744-0.721,67.744,13.779,77.244
	c0,0,18.193,13.508,29.785,1.004c0,0,3.715-1.504-1.285-9.754c-5.5-6.75-15.625-31.625-6.584-50.396
	C117.619,325.745,103.465,312.376,103.465,312.376z"/>
<path fill="white" stroke="#000000" stroke-width="3" d="M85.496,412.037c0.832-6.667,12.375-7.958,15.996-11.081
	c5.928-4.815,11.559-9.534,15.752-11.336c1.834,0.583,18.193,13.508,29.785,1.004c0,0-0.367,7.745-3.367,12.579
	c-9.084,13.75-25.166,23.834-40.75,22.834C92.078,425.703,85.412,417.621,85.496,412.037z"/>
<path fill="white" stroke="#000000" stroke-width="3" d="M85.496,412.037c0-2.751-6.75,3.916-0.166,16.083
	c7.416,9.25,31.082,6,38.082,3.583c14.918-5.5,24.334-22.999,25.584-27.083s0.166-15.667-1.967-13.996c0,0-0.367,7.745-3.367,12.579
	c-9.084,13.75-25.166,23.834-40.75,22.834C92.078,425.703,85.412,417.621,85.496,412.037z"/>
<path fill="white" stroke="#000000" stroke-width="3" d="M97.744,407.038c-2.459-3.447,3.797-4.922,5.543-4.632
	s7.803,0.9,12.645,4.912c4.842,4.013-0.619,10.36-6.178,7.562C104.193,412.083,99.039,409.146,97.744,407.038z"/>
<path fill="white" stroke="#000000" stroke-width="3" d="M107.611,399.903c-2.75-3.22,3.354-5.234,5.119-5.098
	c1.764,0.137,7.852,0.216,13.023,3.789c5.174,3.575,0.287,10.375-5.494,8.072C114.479,404.366,109.086,401.891,107.611,399.903z"/>
<path fill="white" stroke="#000000" stroke-width="3" d="M133.244,95.37c-9.5-1.25-8.875,13.875-8.875,13.875
	s1.125,4.625,4.375,5.125s9-5.75,9.75-9.75S139.494,97.62,133.244,95.37z"/>
<path fill="white" stroke="#000000" stroke-width="3" d="M103.025,354.542c0,0,3.469,3.453,14.137,3.578
	c0,0,6.799,16.705,4,18.553c-2.801,1.847-12.629-0.296-12.973-2.034C106.244,372.995,103.025,354.542,103.025,354.542z"/>
</svg>
